<svg version="1.1" xmlns="http://www.w3.org/2000/svg" xmlns:xlink="http://www.w3.org/1999/xlink" width="696" height="319"><defs></defs><g><g transform="translate(-10,-18) scale(1,1)"><rect fill="#C0C0C0" stroke="none" x="27" y="97" width="112" height="23" opacity="0.2"></rect></g><g transform="translate(-10,-18) scale(1,1)"><rect fill="#ffffff" stroke="none" x="20" y="90" width="112" height="23"></rect></g><g transform="translate(-10,-18) scale(1,1)"><path fill="none" stroke="#000000" d="M 20 90 L 132 90 L 132 113 L 20 113 L 20 90 Z Z" stroke-miterlimit="10"></path></g><g transform="translate(-10,-18) scale(1,1)"><g><path fill="none" stroke="none"></path><text fill="#000000" stroke="none" font-family="Times" font-size="12px" font-style="normal" font-weight="bold" text-decoration="none" x="28" y="108.5">CompulsoryModule</text></g></g><g transform="translate(-10,-18) scale(1,1)"><rect fill="#C0C0C0" stroke="none" x="172" y="35" width="83" height="23" opacity="0.2"></rect></g><g transform="translate(-10,-18) scale(1,1)"><rect fill="#ffffff" stroke="none" x="165" y="28" width="83" height="23"></rect></g><g transform="translate(-10,-18) scale(1,1)"><path fill="none" stroke="#000000" d="M 165 28 L 248 28 L 248 51 L 165 51 L 165 28 Z Z" stroke-miterlimit="10"></path></g><g transform="translate(-10,-18) scale(1,1)"><g><path fill="none" stroke="none"></path><text fill="#000000" stroke="none" font-family="Times" font-size="12px" font-style="italic" font-weight="bold" text-decoration="none" x="171" y="46.5">CourseModule</text></g></g><g transform="translate(-10,-18) scale(1,1)"><path fill="none" stroke="#000000" d="M 76 89 Q 77 75 164 51" stroke-miterlimit="10"></path></g><g transform="translate(-10,-18) scale(1,1)"><path fill="#FFFFFF" stroke="none" d="M 146.645378590944 64.52098797234639 L 164 51 L 142.16764723314338 48.28921180031916"></path></g><g transform="translate(-10,-18) scale(1,1)"><path fill="none" stroke="#000000" d="M 146.645378590944 64.52098797234639 L 164 51 L 142.16764723314338 48.28921180031916 L 146.645378590944 64.52098797234639" stroke-miterlimit="10"></path></g><g transform="translate(-10,-18) scale(1,1)"><rect fill="#C0C0C0" stroke="none" x="239" y="311" width="44" height="23" opacity="0.2"></rect></g><g transform="translate(-10,-18) scale(1,1)"><rect fill="#ffffff" stroke="none" x="232" y="304" width="44" height="23"></rect></g><g transform="translate(-10,-18) scale(1,1)"><path fill="none" stroke="#000000" d="M 232 304 L 276 304 L 276 327 L 232 327 L 232 304 Z Z" stroke-miterlimit="10"></path></g><g transform="translate(-10,-18) scale(1,1)"><g><path fill="none" stroke="none"></path><text fill="#000000" stroke="none" font-family="Times" font-size="12px" font-style="normal" font-weight="bold" text-decoration="none" x="237.5" y="322.5">SClass</text></g></g><g transform="translate(-10,-18) scale(1,1)"><rect fill="#C0C0C0" stroke="none" x="439" y="303" width="31" height="23" opacity="0.2"></rect></g><g transform="translate(-10,-18) scale(1,1)"><rect fill="#ffffff" stroke="none" x="432" y="296" width="31" height="23"></rect></g><g transform="translate(-10,-18) scale(1,1)"><path fill="none" stroke="#000000" d="M 432 296 L 463 296 L 463 319 L 432 319 L 432 296 Z Z" stroke-miterlimit="10"></path></g><g transform="translate(-10,-18) scale(1,1)"><g><path fill="none" stroke="none"></path><text fill="#000000" stroke="none" font-family="Times" font-size="12px" font-style="normal" font-weight="bold" text-decoration="none" x="437.5" y="314.5">City</text></g></g><g transform="translate(-10,-18) scale(1,1)"><rect fill="#C0C0C0" stroke="none" x="327" y="207" width="50" height="23" opacity="0.2"></rect></g><g transform="translate(-10,-18) scale(1,1)"><rect fill="#ffffff" stroke="none" x="320" y="200" width="50" height="23"></rect></g><g transform="translate(-10,-18) scale(1,1)"><path fill="none" stroke="#000000" d="M 320 200 L 370 200 L 370 223 L 320 223 L 320 200 Z Z" stroke-miterlimit="10"></path></g><g transform="translate(-10,-18) scale(1,1)"><g><path fill="none" stroke="none"></path><text fill="#000000" stroke="none" font-family="Times" font-size="12px" font-style="normal" font-weight="bold" text-decoration="none" x="327" y="218.5">Student</text></g></g><g transform="translate(-10,-18) scale(1,1)"><path fill="none" stroke="#000000" d="M 258 303 Q 280 240 319 223" stroke-miterlimit="10"></path></g><g transform="translate(-10,-18) scale(1,1)"><path fill="none" stroke="#000000" d="M 311.36597889007066 230.9197046468384 L 319 223 L 308.0018550446737 223.20200876622175" stroke-miterlimit="10"></path></g><g transform="translate(-10,-18) scale(1,1)"><g><path fill="none" stroke="none"></path><text fill="#000000" stroke="none" font-family="Times" font-size="12px" font-style="normal" font-weight="normal" text-decoration="none" x="238.5" y="233.5">-students</text></g></g><g transform="translate(-10,-18) scale(1,1)"><g><path fill="none" stroke="none"></path><text fill="#000000" stroke="none" font-family="Times" font-size="12px" font-style="normal" font-weight="normal" text-decoration="none" x="214.5" y="217.5">{collection="List"}</text></g></g><g transform="translate(-10,-18) scale(1,1)"><g><path fill="none" stroke="none"></path><text fill="#000000" stroke="none" font-family="Times" font-size="12px" font-style="normal" font-weight="normal" text-decoration="none" x="300.5" y="248.5">*</text></g></g><g transform="translate(-10,-18) scale(1,1)"><path fill="none" stroke="#000000" d="M 431 303 Q 368 288 349 224" stroke-miterlimit="10"></path></g><g transform="translate(-10,-18) scale(1,1)"><path fill="none" stroke="#000000" d="M 355.92772087565965 232.54439485680228 L 349 224 L 347.8568388649662 234.9404379537269" stroke-miterlimit="10"></path></g><g transform="translate(-10,-18) scale(1,1)"><g><path fill="none" stroke="none"></path><text fill="#000000" stroke="none" font-family="Times" font-size="12px" font-style="normal" font-weight="normal" text-decoration="none" x="358.5" y="249.5">-student</text></g></g><g transform="translate(-10,-18) scale(1,1)"><path fill="none" stroke="#000000" d="M 371 217 Q 440 232 446 295" stroke-miterlimit="10"></path></g><g transform="translate(-10,-18) scale(1,1)"><path fill="none" stroke="#000000" d="M 440.8459301501575 285.2822037486401 L 446 295 L 449.22704188599306 284.48400263094146" stroke-miterlimit="10"></path></g><g transform="translate(-10,-18) scale(1,1)"><g><path fill="none" stroke="none"></path><text fill="#000000" stroke="none" font-family="Times" font-size="12px" font-style="normal" font-weight="normal" text-decoration="none" x="453.5" y="281.5">-address</text></g></g><g transform="translate(-10,-18) scale(1,1)"><path fill="none" stroke="#000000" d="M 342 224 Q 328 280 277 304" stroke-miterlimit="10"></path></g><g transform="translate(-10,-18) scale(1,1)"><path fill="none" stroke="#000000" d="M 284.4029780906765 295.86391277154905 L 277 304 L 287.9877784604558 303.48161355732987" stroke-miterlimit="10"></path></g><g transform="translate(-10,-18) scale(1,1)"><g><path fill="none" stroke="none"></path><text fill="#000000" stroke="none" font-family="Times" font-size="12px" font-style="normal" font-weight="normal" text-decoration="none" x="289.5" y="311.5">-sclass</text></g></g><g transform="translate(-10,-18) scale(1,1)"><rect fill="#C0C0C0" stroke="none" x="170" y="97" width="87" height="23" opacity="0.2"></rect></g><g transform="translate(-10,-18) scale(1,1)"><rect fill="#ffffff" stroke="none" x="163" y="90" width="87" height="23"></rect></g><g transform="translate(-10,-18) scale(1,1)"><path fill="none" stroke="#000000" d="M 163 90 L 250 90 L 250 113 L 163 113 L 163 90 Z Z" stroke-miterlimit="10"></path></g><g transform="translate(-10,-18) scale(1,1)"><g><path fill="none" stroke="none"></path><text fill="#000000" stroke="none" font-family="Times" font-size="12px" font-style="normal" font-weight="bold" text-decoration="none" x="169.5" y="108.5">ElectiveModule</text></g></g><g transform="translate(-10,-18) scale(1,1)"><path fill="none" stroke="#000000" d="M 206 89 Q 207 75 206 52" stroke-miterlimit="10"></path></g><g transform="translate(-10,-18) scale(1,1)"><path fill="#FFFFFF" stroke="none" d="M 215.2939660497811 71.94046627001276 L 206 52 L 198.47178749837013 72.6718653374654"></path></g><g transform="translate(-10,-18) scale(1,1)"><path fill="none" stroke="#000000" d="M 215.2939660497811 71.94046627001276 L 206 52 L 198.47178749837013 72.6718653374654 L 215.2939660497811 71.94046627001276" stroke-miterlimit="10"></path></g><g transform="translate(-10,-18) scale(1,1)"><rect fill="#C0C0C0" stroke="none" x="328" y="97" width="64" height="23" opacity="0.2"></rect></g><g transform="translate(-10,-18) scale(1,1)"><rect fill="#ffffff" stroke="none" x="321" y="90" width="64" height="23"></rect></g><g transform="translate(-10,-18) scale(1,1)"><path fill="none" stroke="#000000" d="M 321 90 L 385 90 L 385 113 L 321 113 L 321 90 Z Z" stroke-miterlimit="10"></path></g><g transform="translate(-10,-18) scale(1,1)"><g><path fill="none" stroke="none"></path><text fill="#000000" stroke="none" font-family="Times" font-size="12px" font-style="normal" font-weight="bold" text-decoration="none" x="328.5" y="108.5">Enrolment</text></g></g><g transform="translate(-10,-18) scale(1,1)"><path fill="none" stroke="#000000" d="M 338 199 Q 304 136 335 114" stroke-miterlimit="10"></path></g><g transform="translate(-10,-18) scale(1,1)"><path fill="none" stroke="#000000" d="M 329.14851184173676 123.3145094521239 L 335 114 L 324.27602024623627 116.4487258402823" stroke-miterlimit="10"></path></g><g transform="translate(-10,-18) scale(1,1)"><g><path fill="none" stroke="none"></path><text fill="#000000" stroke="none" font-family="Times" font-size="12px" font-style="normal" font-weight="normal" text-decoration="none" x="253.5" y="129.5">-enrolments</text></g></g><g transform="translate(-10,-18) scale(1,1)"><g><path fill="none" stroke="none"></path><text fill="#000000" stroke="none" font-family="Times" font-size="12px" font-style="normal" font-weight="normal" text-decoration="none" x="221.5" y="145.5">{collection="List"}</text></g></g><g transform="translate(-10,-18) scale(1,1)"><g><path fill="none" stroke="none"></path><text fill="#000000" stroke="none" font-family="Times" font-size="12px" font-style="normal" font-weight="normal" text-decoration="none" x="334.5" y="137.5">*</text></g></g><g transform="translate(-10,-18) scale(1,1)"><path fill="none" stroke="#000000" d="M 367 114 Q 400 144 355 199" stroke-miterlimit="10"></path></g><g transform="translate(-10,-18) scale(1,1)"><path fill="none" stroke="#000000" d="M 358.1774027765504 188.46889789264344 L 355 199 L 364.69337676333953 193.80014933638" stroke-miterlimit="10"></path></g><g transform="translate(-10,-18) scale(1,1)"><g><path fill="none" stroke="none"></path><text fill="#000000" stroke="none" font-family="Times" font-size="12px" font-style="normal" font-weight="normal" text-decoration="none" x="382.5" y="162.5">-student</text></g></g><g transform="translate(-10,-18) scale(1,1)"><path fill="none" stroke="#000000" d="M 335 89 Q 314 75 245 52" stroke-miterlimit="10"></path></g><g transform="translate(-10,-18) scale(1,1)"><path fill="none" stroke="#000000" d="M 255.97232629693906 51.22022077900253 L 245 52 L 253.30999350495279 59.207219154961415" stroke-miterlimit="10"></path></g><g transform="translate(-10,-18) scale(1,1)"><g><path fill="none" stroke="none"></path><text fill="#000000" stroke="none" font-family="Times" font-size="12px" font-style="normal" font-weight="normal" text-decoration="none" x="278.5" y="58.5">-module</text></g></g><g transform="translate(-10,-18) scale(1,1)"><rect fill="#C0C0C0" stroke="none" x="543" y="159" width="64" height="15" opacity="0.2"></rect></g><g transform="translate(-10,-18) scale(1,1)"><rect fill="#C0C0C0" stroke="none" x="543" y="173" width="160" height="90" opacity="0.2"></rect></g><g transform="translate(-10,-18) scale(1,1)"><rect fill="#ffffff" stroke="none" x="536" y="167" width="160" height="89"></rect></g><g transform="translate(-10,-18) scale(1,1)"><path fill="none" stroke="#000000" d="M 536 167 L 696 167 L 696 256 L 536 256 L 536 167 Z Z" stroke-miterlimit="10"></path></g><g transform="translate(-10,-18) scale(1,1)"><rect fill="#ffffff" stroke="none" x="536" y="152" width="64" height="15"></rect></g><g transform="translate(-10,-18) scale(1,1)"><path fill="none" stroke="#000000" d="M 536 152 L 600 152 L 600 167 L 536 167 L 536 152 Z Z" stroke-miterlimit="10"></path></g><g transform="translate(-10,-18) scale(1,1)"><rect fill="#ffffff" stroke="none" x="536" y="166" width="160" height="90"></rect></g><g transform="translate(-10,-18) scale(1,1)"><path fill="none" stroke="#000000" d="M 536 166 L 696 166 L 696 256 L 536 256 L 536 166 Z Z" stroke-miterlimit="10"></path></g><g transform="translate(-10,-18) scale(1,1)"><g><path fill="none" stroke="none"></path><text fill="#000000" stroke="none" font-family="Times" font-size="12px" font-style="normal" font-weight="bold" text-decoration="none" x="599.5" y="185.5">reports</text></g></g><g transform="translate(-10,-18) scale(1,1)"><path fill="none" stroke="#000000" d="M 590 199 Q 456 144 365 199" stroke-miterlimit="10"></path></g><g transform="translate(-10,-18) scale(1,1)"><path fill="none" stroke="#000000" d="M 371.5200982593958 190.14063666577425 L 365 199 L 375.8749215838479 197.3458898025949" stroke-miterlimit="10"></path></g><g transform="translate(-10,-18) scale(1,1)"><g><path fill="none" stroke="none"></path><text fill="#000000" stroke="none" font-family="Times" font-size="12px" font-style="normal" font-weight="normal" text-decoration="none" x="395.5" y="199.5">-students</text></g></g><g transform="translate(-10,-18) scale(1,1)"><g><path fill="none" stroke="none"></path><text fill="#000000" stroke="none" font-family="Times" font-size="12px" font-style="normal" font-weight="normal" text-decoration="none" x="388.5" y="213.5">{collection="Collection"}</text></g></g><g transform="translate(-10,-18) scale(1,1)"><g><path fill="none" stroke="none"></path><text fill="#000000" stroke="none" font-family="Times" font-size="12px" font-style="normal" font-weight="normal" text-decoration="none" x="375.5" y="210.5">*</text></g></g><g transform="translate(-10,-18) scale(1,1)"><rect fill="#C0C0C0" stroke="none" x="559" y="207" width="135" height="23" opacity="0.2"></rect></g><g transform="translate(-10,-18) scale(1,1)"><rect fill="#ffffff" stroke="none" x="552" y="200" width="135" height="23"></rect></g><g transform="translate(-10,-18) scale(1,1)"><path fill="none" stroke="#000000" d="M 552 200 L 687 200 L 687 223 L 552 223 L 552 200 Z Z" stroke-miterlimit="10"></path></g><g transform="translate(-10,-18) scale(1,1)"><g><path fill="none" stroke="none"></path><text fill="#000000" stroke="none" font-family="Times" font-size="12px" font-style="normal" font-weight="bold" text-decoration="none" x="562" y="218.5">StudentsByNameReport</text></g></g></g></svg>