<svg version="1.1" xmlns="http://www.w3.org/2000/svg" xmlns:xlink="http://www.w3.org/1999/xlink" width="631" height="405"><defs></defs><g><g transform="translate(-30,-6) scale(1,1)"><rect fill="#C0C0C0" stroke="none" x="47" y="231" width="185" height="93" opacity="0.2"></rect></g><g transform="translate(-30,-6) scale(1,1)"><rect fill="#e2e2e2" stroke="none" x="40" y="224" width="185" height="93"></rect></g><g transform="translate(-30,-6) scale(1,1)"><path fill="none" stroke="#000000" d="M 40 224 L 225 224 L 225 317 L 40 317 L 40 224 Z Z" stroke-miterlimit="10"></path></g><g transform="translate(-30,-6) scale(1,1)"><path fill="none" stroke="#000000" d="M 40 262 L 225 262" stroke-miterlimit="10"></path></g><g transform="translate(-30,-6) scale(1,1)"><path fill="none" stroke="#000000" d="M 40 272 L 225 272" stroke-miterlimit="10"></path></g><g transform="translate(-30,-6) scale(1,1)"><path fill="none" stroke="#000000" d="M 40 308 L 225 308" stroke-miterlimit="10"></path></g><g transform="translate(-30,-6) scale(1,1)"><g><path fill="none" stroke="none"></path><text fill="#000000" stroke="none" font-family="Times" font-size="12px" font-style="normal" font-weight="bold" text-decoration="none" x="84.5" y="242.5">CompulsoryModule</text></g></g><g transform="translate(-30,-6) scale(1,1)"><g><path fill="none" stroke="none"></path><text fill="#000000" stroke="none" font-family="Times" font-size="12px" font-style="normal" font-weight="normal" text-decoration="none" x="101" y="256.5">(from model)</text></g></g><g transform="translate(-30,-6) scale(1,1)"><g><path fill="none" stroke="none"></path><text fill="#000000" stroke="none" font-family="Times" font-size="12px" font-style="normal" font-weight="normal" text-decoration="none" x="45" y="288.5">«constructor»+CompulsoryModule()</text></g></g><g transform="translate(-30,-6) scale(1,1)"><g><path fill="none" stroke="none"></path><text fill="#000000" stroke="none" font-family="Times" font-size="12px" font-style="normal" font-weight="normal" text-decoration="none" x="45" y="302.5">«constructor»+CompulsoryModule()</text></g></g><g transform="translate(-30,-6) scale(1,1)"><rect fill="#C0C0C0" stroke="none" x="279" y="23" width="159" height="385" opacity="0.2"></rect></g><g transform="translate(-30,-6) scale(1,1)"><rect fill="#e2e2e2" stroke="none" x="272" y="16" width="159" height="385"></rect></g><g transform="translate(-30,-6) scale(1,1)"><path fill="none" stroke="#000000" d="M 272 16 L 431 16 L 431 401 L 272 401 L 272 16 Z Z" stroke-miterlimit="10"></path></g><g transform="translate(-30,-6) scale(1,1)"><path fill="none" stroke="#000000" d="M 272 54 L 431 54" stroke-miterlimit="10"></path></g><g transform="translate(-30,-6) scale(1,1)"><path fill="none" stroke="#000000" d="M 272 160 L 431 160" stroke-miterlimit="10"></path></g><g transform="translate(-30,-6) scale(1,1)"><path fill="none" stroke="#000000" d="M 272 392 L 431 392" stroke-miterlimit="10"></path></g><g transform="translate(-30,-6) scale(1,1)"><g><path fill="none" stroke="none"></path><text fill="#000000" stroke="none" font-family="Times" font-size="12px" font-style="italic" font-weight="bold" text-decoration="none" x="316" y="34.5">CourseModule</text></g></g><g transform="translate(-30,-6) scale(1,1)"><g><path fill="none" stroke="none"></path><text fill="#000000" stroke="none" font-family="Times" font-size="12px" font-style="normal" font-weight="normal" text-decoration="none" x="320" y="48.5">(from model)</text></g></g><g transform="translate(-30,-6) scale(1,1)"><g><path fill="none" stroke="none"></path><text fill="#000000" stroke="none" font-family="Times" font-size="12px" font-style="normal" font-weight="normal" text-decoration="none" x="277" y="70.5">-id: int</text></g></g><g transform="translate(-30,-6) scale(1,1)"><g><path fill="none" stroke="none"></path><text fill="#000000" stroke="none" font-family="Times" font-size="12px" font-style="normal" font-weight="normal" text-decoration="none" x="277" y="84.5">-idCounter: int</text><path fill="none" stroke="#000000" d="M 277 84.5 L 346 84.5" stroke-miterlimit="10"></path></g></g><g transform="translate(-30,-6) scale(1,1)"><g><path fill="none" stroke="none"></path><text fill="#000000" stroke="none" font-family="Times" font-size="12px" font-style="normal" font-weight="normal" text-decoration="none" x="277" y="98.5">-code: String</text></g></g><g transform="translate(-30,-6) scale(1,1)"><g><path fill="none" stroke="none"></path><text fill="#000000" stroke="none" font-family="Times" font-size="12px" font-style="normal" font-weight="normal" text-decoration="none" x="277" y="112.5">-name: String</text></g></g><g transform="translate(-30,-6) scale(1,1)"><g><path fill="none" stroke="none"></path><text fill="#000000" stroke="none" font-family="Times" font-size="12px" font-style="normal" font-weight="normal" text-decoration="none" x="277" y="126.5">-semester: int</text></g></g><g transform="translate(-30,-6) scale(1,1)"><g><path fill="none" stroke="none"></path><text fill="#000000" stroke="none" font-family="Times" font-size="12px" font-style="normal" font-weight="normal" text-decoration="none" x="277" y="140.5">-credits: int</text></g></g><g transform="translate(-30,-6) scale(1,1)"><g><path fill="none" stroke="none"></path><text fill="#000000" stroke="none" font-family="Times" font-size="12px" font-style="normal" font-weight="normal" text-decoration="none" x="277" y="154.5">-currNums: Map</text><path fill="none" stroke="#000000" d="M 277 154.5 L 357 154.5" stroke-miterlimit="10"></path></g></g><g transform="translate(-30,-6) scale(1,1)"><g><path fill="none" stroke="none"></path><text fill="#000000" stroke="none" font-family="Times" font-size="12px" font-style="normal" font-weight="normal" text-decoration="none" x="277" y="176.5">«constructor»#CourseModule()</text></g></g><g transform="translate(-30,-6) scale(1,1)"><g><path fill="none" stroke="none"></path><text fill="#000000" stroke="none" font-family="Times" font-size="12px" font-style="normal" font-weight="normal" text-decoration="none" x="277" y="190.5">«constructor»#CourseModule()</text></g></g><g transform="translate(-30,-6) scale(1,1)"><g><path fill="none" stroke="none"></path><text fill="#000000" stroke="none" font-family="Times" font-size="12px" font-style="normal" font-weight="normal" text-decoration="none" x="277" y="204.5">-nextID()</text><path fill="none" stroke="#000000" d="M 277 204.5 L 322 204.5" stroke-miterlimit="10"></path></g></g><g transform="translate(-30,-6) scale(1,1)"><g><path fill="none" stroke="none"></path><text fill="#000000" stroke="none" font-family="Times" font-size="12px" font-style="normal" font-weight="normal" text-decoration="none" x="277" y="218.5">+getId()</text></g></g><g transform="translate(-30,-6) scale(1,1)"><g><path fill="none" stroke="none"></path><text fill="#000000" stroke="none" font-family="Times" font-size="12px" font-style="normal" font-weight="normal" text-decoration="none" x="277" y="232.5">+setName()</text></g></g><g transform="translate(-30,-6) scale(1,1)"><g><path fill="none" stroke="none"></path><text fill="#000000" stroke="none" font-family="Times" font-size="12px" font-style="normal" font-weight="normal" text-decoration="none" x="277" y="246.5">+setSemester()</text></g></g><g transform="translate(-30,-6) scale(1,1)"><g><path fill="none" stroke="none"></path><text fill="#000000" stroke="none" font-family="Times" font-size="12px" font-style="normal" font-weight="normal" text-decoration="none" x="277" y="260.5">+setCredits()</text></g></g><g transform="translate(-30,-6) scale(1,1)"><g><path fill="none" stroke="none"></path><text fill="#000000" stroke="none" font-family="Times" font-size="12px" font-style="normal" font-weight="normal" text-decoration="none" x="277" y="274.5">+getCode()</text></g></g><g transform="translate(-30,-6) scale(1,1)"><g><path fill="none" stroke="none"></path><text fill="#000000" stroke="none" font-family="Times" font-size="12px" font-style="normal" font-weight="normal" text-decoration="none" x="277" y="288.5">+getName()</text></g></g><g transform="translate(-30,-6) scale(1,1)"><g><path fill="none" stroke="none"></path><text fill="#000000" stroke="none" font-family="Times" font-size="12px" font-style="normal" font-weight="normal" text-decoration="none" x="277" y="302.5">+getSemester()</text></g></g><g transform="translate(-30,-6) scale(1,1)"><g><path fill="none" stroke="none"></path><text fill="#000000" stroke="none" font-family="Times" font-size="12px" font-style="normal" font-weight="normal" text-decoration="none" x="277" y="316.5">+getCredits()</text></g></g><g transform="translate(-30,-6) scale(1,1)"><g><path fill="none" stroke="none"></path><text fill="#000000" stroke="none" font-family="Times" font-size="12px" font-style="normal" font-weight="normal" text-decoration="none" x="277" y="330.5">+toString()</text></g></g><g transform="translate(-30,-6) scale(1,1)"><g><path fill="none" stroke="none"></path><text fill="#000000" stroke="none" font-family="Times" font-size="12px" font-style="normal" font-weight="normal" text-decoration="none" x="277" y="344.5">+hashCode()</text></g></g><g transform="translate(-30,-6) scale(1,1)"><g><path fill="none" stroke="none"></path><text fill="#000000" stroke="none" font-family="Times" font-size="12px" font-style="normal" font-weight="normal" text-decoration="none" x="277" y="358.5">+equals()</text></g></g><g transform="translate(-30,-6) scale(1,1)"><g><path fill="none" stroke="none"></path><text fill="#000000" stroke="none" font-family="Times" font-size="12px" font-style="normal" font-weight="normal" text-decoration="none" x="277" y="372.5">-nextCode()</text></g></g><g transform="translate(-30,-6) scale(1,1)"><g><path fill="none" stroke="none"></path><text fill="#000000" stroke="none" font-family="Times" font-size="12px" font-style="normal" font-weight="normal" text-decoration="none" x="277" y="386.5">+updateAutoGeneratedValue()</text><path fill="none" stroke="#000000" d="M 277 386.5 L 423 386.5" stroke-miterlimit="10"></path></g></g><g transform="translate(-30,-6) scale(1,1)"><path fill="none" stroke="#000000" d="M 226 243 L 271 231" stroke-miterlimit="10"></path></g><g transform="translate(-30,-6) scale(1,1)"><path fill="#FFFFFF" stroke="none" d="M 253.53020795070455 244.37184975066555 L 271 231 L 249.19166594032112 228.1023172117276"></path></g><g transform="translate(-30,-6) scale(1,1)"><path fill="none" stroke="#000000" d="M 253.53020795070455 244.37184975066555 L 271 231 L 249.19166594032112 228.1023172117276 L 253.53020795070455 244.37184975066555" stroke-miterlimit="10"></path></g><g transform="translate(-30,-6) scale(1,1)"><rect fill="#C0C0C0" stroke="none" x="495" y="207" width="163" height="147" opacity="0.2"></rect></g><g transform="translate(-30,-6) scale(1,1)"><rect fill="#e2e2e2" stroke="none" x="488" y="200" width="163" height="147"></rect></g><g transform="translate(-30,-6) scale(1,1)"><path fill="none" stroke="#000000" d="M 488 200 L 651 200 L 651 347 L 488 347 L 488 200 Z Z" stroke-miterlimit="10"></path></g><g transform="translate(-30,-6) scale(1,1)"><path fill="none" stroke="#000000" d="M 488 238 L 651 238" stroke-miterlimit="10"></path></g><g transform="translate(-30,-6) scale(1,1)"><path fill="none" stroke="#000000" d="M 488 260 L 651 260" stroke-miterlimit="10"></path></g><g transform="translate(-30,-6) scale(1,1)"><path fill="none" stroke="#000000" d="M 488 338 L 651 338" stroke-miterlimit="10"></path></g><g transform="translate(-30,-6) scale(1,1)"><g><path fill="none" stroke="none"></path><text fill="#000000" stroke="none" font-family="Times" font-size="12px" font-style="normal" font-weight="bold" text-decoration="none" x="532.5" y="218.5">ElectiveModule</text></g></g><g transform="translate(-30,-6) scale(1,1)"><g><path fill="none" stroke="none"></path><text fill="#000000" stroke="none" font-family="Times" font-size="12px" font-style="normal" font-weight="normal" text-decoration="none" x="538" y="232.5">(from model)</text></g></g><g transform="translate(-30,-6) scale(1,1)"><g><path fill="none" stroke="none"></path><text fill="#000000" stroke="none" font-family="Times" font-size="12px" font-style="normal" font-weight="normal" text-decoration="none" x="493" y="254.5">-deptName: String</text></g></g><g transform="translate(-30,-6) scale(1,1)"><g><path fill="none" stroke="none"></path><text fill="#000000" stroke="none" font-family="Times" font-size="12px" font-style="normal" font-weight="normal" text-decoration="none" x="493" y="276.5">«constructor»+ElectiveModule()</text></g></g><g transform="translate(-30,-6) scale(1,1)"><g><path fill="none" stroke="none"></path><text fill="#000000" stroke="none" font-family="Times" font-size="12px" font-style="normal" font-weight="normal" text-decoration="none" x="493" y="290.5">«constructor»+ElectiveModule()</text></g></g><g transform="translate(-30,-6) scale(1,1)"><g><path fill="none" stroke="none"></path><text fill="#000000" stroke="none" font-family="Times" font-size="12px" font-style="normal" font-weight="normal" text-decoration="none" x="493" y="304.5">+setDeptName()</text></g></g><g transform="translate(-30,-6) scale(1,1)"><g><path fill="none" stroke="none"></path><text fill="#000000" stroke="none" font-family="Times" font-size="12px" font-style="normal" font-weight="normal" text-decoration="none" x="493" y="318.5">+getDeptName()</text></g></g><g transform="translate(-30,-6) scale(1,1)"><g><path fill="none" stroke="none"></path><text fill="#000000" stroke="none" font-family="Times" font-size="12px" font-style="normal" font-weight="normal" text-decoration="none" x="493" y="332.5">+getSemester()</text></g></g><g transform="translate(-30,-6) scale(1,1)"><path fill="none" stroke="#000000" d="M 487 249 L 432 232" stroke-miterlimit="10"></path></g><g transform="translate(-30,-6) scale(1,1)"><path fill="#FFFFFF" stroke="none" d="M 453.90508677805497 229.95863446539286 L 432 232 L 448.9326988156436 246.04577199084125"></path></g><g transform="translate(-30,-6) scale(1,1)"><path fill="none" stroke="#000000" d="M 453.90508677805497 229.95863446539286 L 432 232 L 448.9326988156436 246.04577199084125 L 453.90508677805497 229.95863446539286" stroke-miterlimit="10"></path></g></g></svg>