<svg version="1.1" xmlns="http://www.w3.org/2000/svg" xmlns:xlink="http://www.w3.org/1999/xlink" width="681" height="573"><defs></defs><g><g transform="translate(-18,-64) scale(1,1)"><rect fill="#C0C0C0" stroke="none" x="35" y="263" width="112" height="23" opacity="0.2"></rect></g><g transform="translate(-18,-64) scale(1,1)"><rect fill="#ffffff" stroke="none" x="28" y="256" width="112" height="23"></rect></g><g transform="translate(-18,-64) scale(1,1)"><path fill="none" stroke="#000000" d="M 28 256 L 140 256 L 140 279 L 28 279 L 28 256 Z Z" stroke-miterlimit="10"></path></g><g transform="translate(-18,-64) scale(1,1)"><g><path fill="none" stroke="none"></path><text fill="#000000" stroke="none" font-family="Times" font-size="12px" font-style="normal" font-weight="bold" text-decoration="none" x="36" y="274.5">CompulsoryModule</text></g></g><g transform="translate(-18,-64) scale(1,1)"><rect fill="#C0C0C0" stroke="none" x="180" y="171" width="83" height="23" opacity="0.2"></rect></g><g transform="translate(-18,-64) scale(1,1)"><rect fill="#ffffff" stroke="none" x="173" y="164" width="83" height="23"></rect></g><g transform="translate(-18,-64) scale(1,1)"><path fill="none" stroke="#000000" d="M 173 164 L 256 164 L 256 187 L 173 187 L 173 164 Z Z" stroke-miterlimit="10"></path></g><g transform="translate(-18,-64) scale(1,1)"><g><path fill="none" stroke="none"></path><text fill="#000000" stroke="none" font-family="Times" font-size="12px" font-style="italic" font-weight="bold" text-decoration="none" x="179" y="182.5">CourseModule</text></g></g><g transform="translate(-18,-64) scale(1,1)"><path fill="none" stroke="#000000" d="M 101 255 L 196 188" stroke-miterlimit="10"></path></g><g transform="translate(-18,-64) scale(1,1)"><path fill="#FFFFFF" stroke="none" d="M 184.2422709305294 206.5945101341478 L 196 188 L 174.53772583492525 192.83433425232104"></path></g><g transform="translate(-18,-64) scale(1,1)"><path fill="none" stroke="#000000" d="M 184.2422709305294 206.5945101341478 L 196 188 L 174.53772583492525 192.83433425232104 L 184.2422709305294 206.5945101341478" stroke-miterlimit="10"></path></g><g transform="translate(-18,-64) scale(1,1)"><rect fill="#C0C0C0" stroke="none" x="55" y="343" width="31" height="23" opacity="0.2"></rect></g><g transform="translate(-18,-64) scale(1,1)"><rect fill="#ffffff" stroke="none" x="48" y="336" width="31" height="23"></rect></g><g transform="translate(-18,-64) scale(1,1)"><path fill="none" stroke="#000000" d="M 48 336 L 79 336 L 79 359 L 48 359 L 48 336 Z Z" stroke-miterlimit="10"></path></g><g transform="translate(-18,-64) scale(1,1)"><g><path fill="none" stroke="none"></path><text fill="#000000" stroke="none" font-family="Times" font-size="12px" font-style="normal" font-weight="bold" text-decoration="none" x="53.5" y="354.5">City</text></g></g><g transform="translate(-18,-64) scale(1,1)"><rect fill="#C0C0C0" stroke="none" x="183" y="343" width="50" height="23" opacity="0.2"></rect></g><g transform="translate(-18,-64) scale(1,1)"><rect fill="#ffffff" stroke="none" x="176" y="336" width="50" height="23"></rect></g><g transform="translate(-18,-64) scale(1,1)"><path fill="none" stroke="#000000" d="M 176 336 L 226 336 L 226 359 L 176 359 L 176 336 Z Z" stroke-miterlimit="10"></path></g><g transform="translate(-18,-64) scale(1,1)"><g><path fill="none" stroke="none"></path><text fill="#000000" stroke="none" font-family="Times" font-size="12px" font-style="normal" font-weight="bold" text-decoration="none" x="183" y="354.5">Student</text></g></g><g transform="translate(-18,-64) scale(1,1)"><path fill="none" stroke="#000000" d="M 80 357 Q 112 376 175 355" stroke-miterlimit="10"></path></g><g transform="translate(-18,-64) scale(1,1)"><path fill="none" stroke="#000000" d="M 166.69000649504724 362.2072191549614 L 175 355 L 164.02767370306094 354.22022077900255" stroke-miterlimit="10"></path></g><g transform="translate(-18,-64) scale(1,1)"><g><path fill="none" stroke="none"></path><text fill="#000000" stroke="none" font-family="Times" font-size="12px" font-style="normal" font-weight="normal" text-decoration="none" x="125.5" y="353.5">-student</text></g></g><g transform="translate(-18,-64) scale(1,1)"><path fill="none" stroke="#000000" d="M 176 335 Q 128 312 80 338" stroke-miterlimit="10"></path></g><g transform="translate(-18,-64) scale(1,1)"><path fill="none" stroke="#000000" d="M 86.93103599016068 329.45829407535604 L 80 338 L 90.94088073150768 336.8610843670736" stroke-miterlimit="10"></path></g><g transform="translate(-18,-64) scale(1,1)"><g><path fill="none" stroke="none"></path><text fill="#000000" stroke="none" font-family="Times" font-size="12px" font-style="normal" font-weight="normal" text-decoration="none" x="88.5" y="343.5">-address</text></g></g><g transform="translate(-18,-64) scale(1,1)"><rect fill="#C0C0C0" stroke="none" x="178" y="263" width="87" height="23" opacity="0.2"></rect></g><g transform="translate(-18,-64) scale(1,1)"><rect fill="#ffffff" stroke="none" x="171" y="256" width="87" height="23"></rect></g><g transform="translate(-18,-64) scale(1,1)"><path fill="none" stroke="#000000" d="M 171 256 L 258 256 L 258 279 L 171 279 L 171 256 Z Z" stroke-miterlimit="10"></path></g><g transform="translate(-18,-64) scale(1,1)"><g><path fill="none" stroke="none"></path><text fill="#000000" stroke="none" font-family="Times" font-size="12px" font-style="normal" font-weight="bold" text-decoration="none" x="177.5" y="274.5">ElectiveModule</text></g></g><g transform="translate(-18,-64) scale(1,1)"><path fill="none" stroke="#000000" d="M 214 255 L 214 188" stroke-miterlimit="10"></path></g><g transform="translate(-18,-64) scale(1,1)"><path fill="#FFFFFF" stroke="none" d="M 222.41903551203197 208.3253497152483 L 214 188 L 205.58096448796803 208.3253497152483"></path></g><g transform="translate(-18,-64) scale(1,1)"><path fill="none" stroke="#000000" d="M 222.41903551203197 208.3253497152483 L 214 188 L 205.58096448796803 208.3253497152483 L 222.41903551203197 208.3253497152483" stroke-miterlimit="10"></path></g><g transform="translate(-18,-64) scale(1,1)"><rect fill="#C0C0C0" stroke="none" x="367" y="81" width="329" height="553" opacity="0.2"></rect></g><g transform="translate(-18,-64) scale(1,1)"><rect fill="#e2e2e2" stroke="none" x="360" y="74" width="329" height="553"></rect></g><g transform="translate(-18,-64) scale(1,1)"><path fill="none" stroke="#000000" d="M 360 74 L 689 74 L 689 627 L 360 627 L 360 74 Z Z" stroke-miterlimit="10"></path></g><g transform="translate(-18,-64) scale(1,1)"><path fill="none" stroke="#000000" d="M 360 112 L 689 112" stroke-miterlimit="10"></path></g><g transform="translate(-18,-64) scale(1,1)"><path fill="none" stroke="#000000" d="M 360 260 L 689 260" stroke-miterlimit="10"></path></g><g transform="translate(-18,-64) scale(1,1)"><path fill="none" stroke="#000000" d="M 360 618 L 689 618" stroke-miterlimit="10"></path></g><g transform="translate(-18,-64) scale(1,1)"><g><path fill="none" stroke="none"></path><text fill="#000000" stroke="none" font-family="Times" font-size="12px" font-style="normal" font-weight="bold" text-decoration="none" x="500" y="92.5">Enrolment</text></g></g><g transform="translate(-18,-64) scale(1,1)"><g><path fill="none" stroke="none"></path><text fill="#000000" stroke="none" font-family="Times" font-size="12px" font-style="normal" font-weight="normal" text-decoration="none" x="493" y="106.5">(from model)</text></g></g><g transform="translate(-18,-64) scale(1,1)"><g><path fill="none" stroke="none"></path><text fill="#000000" stroke="none" font-family="Times" font-size="12px" font-style="normal" font-weight="normal" text-decoration="none" x="365" y="128.5">-AttributeName_InternalMark: String = "internalMark" {readOnly}</text><path fill="none" stroke="#000000" d="M 365 128.5 L 685 128.5" stroke-miterlimit="10"></path></g></g><g transform="translate(-18,-64) scale(1,1)"><g><path fill="none" stroke="none"></path><text fill="#000000" stroke="none" font-family="Times" font-size="12px" font-style="normal" font-weight="normal" text-decoration="none" x="365" y="142.5">-AttributeName_ExamMark: String = "examMark" {readOnly}</text><path fill="none" stroke="#000000" d="M 365 142.5 L 666 142.5" stroke-miterlimit="10"></path></g></g><g transform="translate(-18,-64) scale(1,1)"><g><path fill="none" stroke="none"></path><text fill="#000000" stroke="none" font-family="Times" font-size="12px" font-style="normal" font-weight="normal" text-decoration="none" x="365" y="156.5">-AttributeName_FinalMark: String = "finalMark" {readOnly}</text><path fill="none" stroke="#000000" d="M 365 156.5 L 659 156.5" stroke-miterlimit="10"></path></g></g><g transform="translate(-18,-64) scale(1,1)"><g><path fill="none" stroke="none"></path><text fill="#000000" stroke="none" font-family="Times" font-size="12px" font-style="normal" font-weight="normal" text-decoration="none" x="365" y="170.5">-id: int</text></g></g><g transform="translate(-18,-64) scale(1,1)"><g><path fill="none" stroke="none"></path><text fill="#000000" stroke="none" font-family="Times" font-size="12px" font-style="normal" font-weight="normal" text-decoration="none" x="365" y="184.5">-idCounter: int = 0</text><path fill="none" stroke="#000000" d="M 365 184.5 L 453 184.5" stroke-miterlimit="10"></path></g></g><g transform="translate(-18,-64) scale(1,1)"><g><path fill="none" stroke="none"></path><text fill="#000000" stroke="none" font-family="Times" font-size="12px" font-style="normal" font-weight="normal" text-decoration="none" x="365" y="198.5">-internalMark: Double</text></g></g><g transform="translate(-18,-64) scale(1,1)"><g><path fill="none" stroke="none"></path><text fill="#000000" stroke="none" font-family="Times" font-size="12px" font-style="normal" font-weight="normal" text-decoration="none" x="365" y="212.5">-examMark: Double</text></g></g><g transform="translate(-18,-64) scale(1,1)"><g><path fill="none" stroke="none"></path><text fill="#000000" stroke="none" font-family="Times" font-size="12px" font-style="normal" font-weight="normal" text-decoration="none" x="365" y="226.5">-finalGrade: char</text></g></g><g transform="translate(-18,-64) scale(1,1)"><g><path fill="none" stroke="none"></path><text fill="#000000" stroke="none" font-family="Times" font-size="12px" font-style="normal" font-weight="normal" text-decoration="none" x="365" y="240.5">-finalMark: Integer</text></g></g><g transform="translate(-18,-64) scale(1,1)"><g><path fill="none" stroke="none"></path><text fill="#000000" stroke="none" font-family="Times" font-size="12px" font-style="normal" font-weight="normal" text-decoration="none" x="365" y="254.5">-stateHist: StateHistory</text></g></g><g transform="translate(-18,-64) scale(1,1)"><g><path fill="none" stroke="none"></path><text fill="#000000" stroke="none" font-family="Times" font-size="12px" font-style="normal" font-weight="normal" text-decoration="none" x="365" y="276.5">«constructor»+Enrolment()</text></g></g><g transform="translate(-18,-64) scale(1,1)"><g><path fill="none" stroke="none"></path><text fill="#000000" stroke="none" font-family="Times" font-size="12px" font-style="normal" font-weight="normal" text-decoration="none" x="365" y="290.5">«constructor»+Enrolment()</text></g></g><g transform="translate(-18,-64) scale(1,1)"><g><path fill="none" stroke="none"></path><text fill="#000000" stroke="none" font-family="Times" font-size="12px" font-style="normal" font-weight="normal" text-decoration="none" x="365" y="304.5">«constructor»+Enrolment()</text></g></g><g transform="translate(-18,-64) scale(1,1)"><g><path fill="none" stroke="none"></path><text fill="#000000" stroke="none" font-family="Times" font-size="12px" font-style="normal" font-weight="normal" text-decoration="none" x="365" y="318.5">+setStudent()</text></g></g><g transform="translate(-18,-64) scale(1,1)"><g><path fill="none" stroke="none"></path><text fill="#000000" stroke="none" font-family="Times" font-size="12px" font-style="normal" font-weight="normal" text-decoration="none" x="365" y="332.5">+setModule()</text></g></g><g transform="translate(-18,-64) scale(1,1)"><g><path fill="none" stroke="none"></path><text fill="#000000" stroke="none" font-family="Times" font-size="12px" font-style="normal" font-weight="normal" text-decoration="none" x="365" y="346.5">+setInternalMark()</text></g></g><g transform="translate(-18,-64) scale(1,1)"><g><path fill="none" stroke="none"></path><text fill="#000000" stroke="none" font-family="Times" font-size="12px" font-style="normal" font-weight="normal" text-decoration="none" x="365" y="360.5">+setInternalMark()</text></g></g><g transform="translate(-18,-64) scale(1,1)"><g><path fill="none" stroke="none"></path><text fill="#000000" stroke="none" font-family="Times" font-size="12px" font-style="normal" font-weight="normal" text-decoration="none" x="365" y="374.5">+setExamMark()</text></g></g><g transform="translate(-18,-64) scale(1,1)"><g><path fill="none" stroke="none"></path><text fill="#000000" stroke="none" font-family="Times" font-size="12px" font-style="normal" font-weight="normal" text-decoration="none" x="365" y="388.5">+setExamMark()</text></g></g><g transform="translate(-18,-64) scale(1,1)"><g><path fill="none" stroke="none"></path><text fill="#000000" stroke="none" font-family="Times" font-size="12px" font-style="normal" font-weight="normal" text-decoration="none" x="365" y="402.5">+updateFinalMark()</text></g></g><g transform="translate(-18,-64) scale(1,1)"><g><path fill="none" stroke="none"></path><text fill="#000000" stroke="none" font-family="Times" font-size="12px" font-style="normal" font-weight="normal" text-decoration="none" x="365" y="416.5">+getId()</text></g></g><g transform="translate(-18,-64) scale(1,1)"><g><path fill="none" stroke="none"></path><text fill="#000000" stroke="none" font-family="Times" font-size="12px" font-style="normal" font-weight="normal" text-decoration="none" x="365" y="430.5">+getStudent()</text></g></g><g transform="translate(-18,-64) scale(1,1)"><g><path fill="none" stroke="none"></path><text fill="#000000" stroke="none" font-family="Times" font-size="12px" font-style="normal" font-weight="normal" text-decoration="none" x="365" y="444.5">+getModule()</text></g></g><g transform="translate(-18,-64) scale(1,1)"><g><path fill="none" stroke="none"></path><text fill="#000000" stroke="none" font-family="Times" font-size="12px" font-style="normal" font-weight="normal" text-decoration="none" x="365" y="458.5">+getInternalMark()</text></g></g><g transform="translate(-18,-64) scale(1,1)"><g><path fill="none" stroke="none"></path><text fill="#000000" stroke="none" font-family="Times" font-size="12px" font-style="normal" font-weight="normal" text-decoration="none" x="365" y="472.5">+getExamMark()</text></g></g><g transform="translate(-18,-64) scale(1,1)"><g><path fill="none" stroke="none"></path><text fill="#000000" stroke="none" font-family="Times" font-size="12px" font-style="normal" font-weight="normal" text-decoration="none" x="365" y="486.5">+getFinalGrade()</text></g></g><g transform="translate(-18,-64) scale(1,1)"><g><path fill="none" stroke="none"></path><text fill="#000000" stroke="none" font-family="Times" font-size="12px" font-style="normal" font-weight="normal" text-decoration="none" x="365" y="500.5">+getFinalMark()</text></g></g><g transform="translate(-18,-64) scale(1,1)"><g><path fill="none" stroke="none"></path><text fill="#000000" stroke="none" font-family="Times" font-size="12px" font-style="normal" font-weight="normal" text-decoration="none" x="365" y="514.5">+getFinalMark()</text></g></g><g transform="translate(-18,-64) scale(1,1)"><g><path fill="none" stroke="none"></path><text fill="#000000" stroke="none" font-family="Times" font-size="12px" font-style="normal" font-weight="normal" text-decoration="none" x="365" y="528.5">+toString()</text></g></g><g transform="translate(-18,-64) scale(1,1)"><g><path fill="none" stroke="none"></path><text fill="#000000" stroke="none" font-family="Times" font-size="12px" font-style="normal" font-weight="normal" text-decoration="none" x="365" y="542.5">+toString()</text></g></g><g transform="translate(-18,-64) scale(1,1)"><g><path fill="none" stroke="none"></path><text fill="#000000" stroke="none" font-family="Times" font-size="12px" font-style="normal" font-weight="normal" text-decoration="none" x="365" y="556.5">+hashCode()</text></g></g><g transform="translate(-18,-64) scale(1,1)"><g><path fill="none" stroke="none"></path><text fill="#000000" stroke="none" font-family="Times" font-size="12px" font-style="normal" font-weight="normal" text-decoration="none" x="365" y="570.5">+equals()</text></g></g><g transform="translate(-18,-64) scale(1,1)"><g><path fill="none" stroke="none"></path><text fill="#000000" stroke="none" font-family="Times" font-size="12px" font-style="normal" font-weight="normal" text-decoration="none" x="365" y="584.5">-nextID()</text><path fill="none" stroke="#000000" d="M 365 584.5 L 410 584.5" stroke-miterlimit="10"></path></g></g><g transform="translate(-18,-64) scale(1,1)"><g><path fill="none" stroke="none"></path><text fill="#000000" stroke="none" font-family="Times" font-size="12px" font-style="normal" font-weight="normal" text-decoration="none" x="365" y="598.5">+updateAutoGeneratedValue()</text><path fill="none" stroke="#000000" d="M 365 598.5 L 511 598.5" stroke-miterlimit="10"></path></g></g><g transform="translate(-18,-64) scale(1,1)"><g><path fill="none" stroke="none"></path><text fill="#000000" stroke="none" font-family="Times" font-size="12px" font-style="normal" font-weight="normal" text-decoration="none" x="365" y="612.5">+compareTo()</text></g></g><g transform="translate(-18,-64) scale(1,1)"><path fill="none" stroke="#000000" d="M 227 347 L 359 348" stroke-miterlimit="10"></path></g><g transform="translate(-18,-64) scale(1,1)"><path fill="none" stroke="#000000" d="M 348.80572738751937 352.1324092128475 L 359 348 L 348.8695061294084 343.71361528349286" stroke-miterlimit="10"></path></g><g transform="translate(-18,-64) scale(1,1)"><g><path fill="none" stroke="none"></path><text fill="#000000" stroke="none" font-family="Times" font-size="12px" font-style="normal" font-weight="normal" text-decoration="none" x="294.5" y="336.5">-enrolments</text></g></g><g transform="translate(-18,-64) scale(1,1)"><g><path fill="none" stroke="none"></path><text fill="#000000" stroke="none" font-family="Times" font-size="12px" font-style="normal" font-weight="normal" text-decoration="none" x="254.5" y="316.5">{collection="List"}</text></g></g><g transform="translate(-18,-64) scale(1,1)"><g><path fill="none" stroke="none"></path><text fill="#000000" stroke="none" font-family="Times" font-size="12px" font-style="normal" font-weight="normal" text-decoration="none" x="333.5" y="365.5">*</text></g></g><g transform="translate(-18,-64) scale(1,1)"><path fill="none" stroke="#000000" d="M 359 348 L 227 347" stroke-miterlimit="10"></path></g><g transform="translate(-18,-64) scale(1,1)"><path fill="none" stroke="#000000" d="M 237.19427261248066 342.8675907871525 L 227 347 L 237.1304938705916 351.28638471650714" stroke-miterlimit="10"></path></g><g transform="translate(-18,-64) scale(1,1)"><g><path fill="none" stroke="none"></path><text fill="#000000" stroke="none" font-family="Times" font-size="12px" font-style="normal" font-weight="normal" text-decoration="none" x="232.5" y="367.5">-student</text></g></g><g transform="translate(-18,-64) scale(1,1)"><path fill="none" stroke="#000000" d="M 359 257 L 237 188" stroke-miterlimit="10"></path></g><g transform="translate(-18,-64) scale(1,1)"><path fill="none" stroke="#000000" d="M 247.91820965388533 189.338916709062 L 237 188 L 243.77358300025702 196.66709716910046" stroke-miterlimit="10"></path></g><g transform="translate(-18,-64) scale(1,1)"><g><path fill="none" stroke="none"></path><text fill="#000000" stroke="none" font-family="Times" font-size="12px" font-style="normal" font-weight="normal" text-decoration="none" x="232.5" y="218.5">-module</text></g></g></g></svg>