<svg version="1.1" xmlns="http://www.w3.org/2000/svg" xmlns:xlink="http://www.w3.org/1999/xlink" width="495" height="475"><defs></defs><g><g transform="translate(-38,-70) scale(1,1)"><rect fill="#C0C0C0" stroke="none" x="375" y="175" width="155" height="287" opacity="0.2"></rect></g><g transform="translate(-38,-70) scale(1,1)"><rect fill="#e2e2e2" stroke="none" x="368" y="168" width="155" height="287"></rect></g><g transform="translate(-38,-70) scale(1,1)"><path fill="none" stroke="#000000" d="M 368 168 L 523 168 L 523 455 L 368 455 L 368 168 Z Z" stroke-miterlimit="10"></path></g><g transform="translate(-38,-70) scale(1,1)"><path fill="none" stroke="#000000" d="M 368 206 L 523 206" stroke-miterlimit="10"></path></g><g transform="translate(-38,-70) scale(1,1)"><path fill="none" stroke="#000000" d="M 368 256 L 523 256" stroke-miterlimit="10"></path></g><g transform="translate(-38,-70) scale(1,1)"><path fill="none" stroke="#000000" d="M 368 446 L 523 446" stroke-miterlimit="10"></path></g><g transform="translate(-38,-70) scale(1,1)"><g><path fill="none" stroke="none"></path><text fill="#000000" stroke="none" font-family="Times" font-size="12px" font-style="normal" font-weight="bold" text-decoration="none" x="435.5" y="186.5">City</text></g></g><g transform="translate(-38,-70) scale(1,1)"><g><path fill="none" stroke="none"></path><text fill="#000000" stroke="none" font-family="Times" font-size="12px" font-style="normal" font-weight="normal" text-decoration="none" x="414" y="200.5">(from model)</text></g></g><g transform="translate(-38,-70) scale(1,1)"><g><path fill="none" stroke="none"></path><text fill="#000000" stroke="none" font-family="Times" font-size="12px" font-style="normal" font-weight="normal" text-decoration="none" x="373" y="222.5">-id: int</text></g></g><g transform="translate(-38,-70) scale(1,1)"><g><path fill="none" stroke="none"></path><text fill="#000000" stroke="none" font-family="Times" font-size="12px" font-style="normal" font-weight="normal" text-decoration="none" x="373" y="236.5">-idCounter: int</text><path fill="none" stroke="#000000" d="M 373 236.5 L 442 236.5" stroke-miterlimit="10"></path></g></g><g transform="translate(-38,-70) scale(1,1)"><g><path fill="none" stroke="none"></path><text fill="#000000" stroke="none" font-family="Times" font-size="12px" font-style="normal" font-weight="normal" text-decoration="none" x="373" y="250.5">-name: String</text></g></g><g transform="translate(-38,-70) scale(1,1)"><g><path fill="none" stroke="none"></path><text fill="#000000" stroke="none" font-family="Times" font-size="12px" font-style="normal" font-weight="normal" text-decoration="none" x="373" y="272.5">«constructor»+City()</text></g></g><g transform="translate(-38,-70) scale(1,1)"><g><path fill="none" stroke="none"></path><text fill="#000000" stroke="none" font-family="Times" font-size="12px" font-style="normal" font-weight="normal" text-decoration="none" x="373" y="286.5">«constructor»+City()</text></g></g><g transform="translate(-38,-70) scale(1,1)"><g><path fill="none" stroke="none"></path><text fill="#000000" stroke="none" font-family="Times" font-size="12px" font-style="normal" font-weight="normal" text-decoration="none" x="373" y="300.5">«constructor»+City()</text></g></g><g transform="translate(-38,-70) scale(1,1)"><g><path fill="none" stroke="none"></path><text fill="#000000" stroke="none" font-family="Times" font-size="12px" font-style="normal" font-weight="normal" text-decoration="none" x="373" y="314.5">«constructor»-City()</text></g></g><g transform="translate(-38,-70) scale(1,1)"><g><path fill="none" stroke="none"></path><text fill="#000000" stroke="none" font-family="Times" font-size="12px" font-style="normal" font-weight="normal" text-decoration="none" x="373" y="328.5">-nextId()</text><path fill="none" stroke="#000000" d="M 373 328.5 L 415 328.5" stroke-miterlimit="10"></path></g></g><g transform="translate(-38,-70) scale(1,1)"><g><path fill="none" stroke="none"></path><text fill="#000000" stroke="none" font-family="Times" font-size="12px" font-style="normal" font-weight="normal" text-decoration="none" x="373" y="342.5">+updateAutoGeneratedValue()</text><path fill="none" stroke="#000000" d="M 373 342.5 L 519 342.5" stroke-miterlimit="10"></path></g></g><g transform="translate(-38,-70) scale(1,1)"><g><path fill="none" stroke="none"></path><text fill="#000000" stroke="none" font-family="Times" font-size="12px" font-style="normal" font-weight="normal" text-decoration="none" x="373" y="356.5">+getId()</text></g></g><g transform="translate(-38,-70) scale(1,1)"><g><path fill="none" stroke="none"></path><text fill="#000000" stroke="none" font-family="Times" font-size="12px" font-style="normal" font-weight="normal" text-decoration="none" x="373" y="370.5">+getName()</text></g></g><g transform="translate(-38,-70) scale(1,1)"><g><path fill="none" stroke="none"></path><text fill="#000000" stroke="none" font-family="Times" font-size="12px" font-style="normal" font-weight="normal" text-decoration="none" x="373" y="384.5">+setName()</text></g></g><g transform="translate(-38,-70) scale(1,1)"><g><path fill="none" stroke="none"></path><text fill="#000000" stroke="none" font-family="Times" font-size="12px" font-style="normal" font-weight="normal" text-decoration="none" x="373" y="398.5">+getStudent()</text></g></g><g transform="translate(-38,-70) scale(1,1)"><g><path fill="none" stroke="none"></path><text fill="#000000" stroke="none" font-family="Times" font-size="12px" font-style="normal" font-weight="normal" text-decoration="none" x="373" y="412.5">+setNewStudent()</text></g></g><g transform="translate(-38,-70) scale(1,1)"><g><path fill="none" stroke="none"></path><text fill="#000000" stroke="none" font-family="Times" font-size="12px" font-style="normal" font-weight="normal" text-decoration="none" x="373" y="426.5">+setStudent()</text></g></g><g transform="translate(-38,-70) scale(1,1)"><g><path fill="none" stroke="none"></path><text fill="#000000" stroke="none" font-family="Times" font-size="12px" font-style="normal" font-weight="normal" text-decoration="none" x="373" y="440.5">+toString()</text></g></g><g transform="translate(-38,-70) scale(1,1)"><rect fill="#C0C0C0" stroke="none" x="55" y="87" width="220" height="455" opacity="0.2"></rect></g><g transform="translate(-38,-70) scale(1,1)"><rect fill="#e2e2e2" stroke="none" x="48" y="80" width="220" height="455"></rect></g><g transform="translate(-38,-70) scale(1,1)"><path fill="none" stroke="#000000" d="M 48 80 L 268 80 L 268 535 L 48 535 L 48 80 Z Z" stroke-miterlimit="10"></path></g><g transform="translate(-38,-70) scale(1,1)"><path fill="none" stroke="#000000" d="M 48 118 L 268 118" stroke-miterlimit="10"></path></g><g transform="translate(-38,-70) scale(1,1)"><path fill="none" stroke="#000000" d="M 48 266 L 268 266" stroke-miterlimit="10"></path></g><g transform="translate(-38,-70) scale(1,1)"><path fill="none" stroke="#000000" d="M 48 526 L 268 526" stroke-miterlimit="10"></path></g><g transform="translate(-38,-70) scale(1,1)"><g><path fill="none" stroke="none"></path><text fill="#000000" stroke="none" font-family="Times" font-size="12px" font-style="normal" font-weight="bold" text-decoration="none" x="140" y="98.5">Student</text></g></g><g transform="translate(-38,-70) scale(1,1)"><g><path fill="none" stroke="none"></path><text fill="#000000" stroke="none" font-family="Times" font-size="12px" font-style="normal" font-weight="normal" text-decoration="none" x="126.5" y="112.5">(from model)</text></g></g><g transform="translate(-38,-70) scale(1,1)"><g><path fill="none" stroke="none"></path><text fill="#000000" stroke="none" font-family="Times" font-size="12px" font-style="normal" font-weight="normal" text-decoration="none" x="53" y="134.5">+A_name: String = "name" {readOnly}</text><path fill="none" stroke="#000000" d="M 53 134.5 L 242 134.5" stroke-miterlimit="10"></path></g></g><g transform="translate(-38,-70) scale(1,1)"><g><path fill="none" stroke="none"></path><text fill="#000000" stroke="none" font-family="Times" font-size="12px" font-style="normal" font-weight="normal" text-decoration="none" x="53" y="148.5">+A_id: String = "id" {readOnly}</text><path fill="none" stroke="#000000" d="M 53 148.5 L 210 148.5" stroke-miterlimit="10"></path></g></g><g transform="translate(-38,-70) scale(1,1)"><g><path fill="none" stroke="none"></path><text fill="#000000" stroke="none" font-family="Times" font-size="12px" font-style="normal" font-weight="normal" text-decoration="none" x="53" y="162.5">+A_dob: String = "dob" {readOnly}</text><path fill="none" stroke="#000000" d="M 53 162.5 L 228 162.5" stroke-miterlimit="10"></path></g></g><g transform="translate(-38,-70) scale(1,1)"><g><path fill="none" stroke="none"></path><text fill="#000000" stroke="none" font-family="Times" font-size="12px" font-style="normal" font-weight="normal" text-decoration="none" x="53" y="176.5">+A_address: String = "address" {readOnly}</text><path fill="none" stroke="#000000" d="M 53 176.5 L 264 176.5" stroke-miterlimit="10"></path></g></g><g transform="translate(-38,-70) scale(1,1)"><g><path fill="none" stroke="none"></path><text fill="#000000" stroke="none" font-family="Times" font-size="12px" font-style="normal" font-weight="normal" text-decoration="none" x="53" y="190.5">+A_email: String = "email" {readOnly}</text><path fill="none" stroke="#000000" d="M 53 190.5 L 242 190.5" stroke-miterlimit="10"></path></g></g><g transform="translate(-38,-70) scale(1,1)"><g><path fill="none" stroke="none"></path><text fill="#000000" stroke="none" font-family="Times" font-size="12px" font-style="normal" font-weight="normal" text-decoration="none" x="53" y="204.5">-id: String</text></g></g><g transform="translate(-38,-70) scale(1,1)"><g><path fill="none" stroke="none"></path><text fill="#000000" stroke="none" font-family="Times" font-size="12px" font-style="normal" font-weight="normal" text-decoration="none" x="53" y="218.5">-idCounter: int = 0</text><path fill="none" stroke="#000000" d="M 53 218.5 L 141 218.5" stroke-miterlimit="10"></path></g></g><g transform="translate(-38,-70) scale(1,1)"><g><path fill="none" stroke="none"></path><text fill="#000000" stroke="none" font-family="Times" font-size="12px" font-style="normal" font-weight="normal" text-decoration="none" x="53" y="232.5">-name: String</text></g></g><g transform="translate(-38,-70) scale(1,1)"><g><path fill="none" stroke="none"></path><text fill="#000000" stroke="none" font-family="Times" font-size="12px" font-style="normal" font-weight="normal" text-decoration="none" x="53" y="246.5">-dob: String</text></g></g><g transform="translate(-38,-70) scale(1,1)"><g><path fill="none" stroke="none"></path><text fill="#000000" stroke="none" font-family="Times" font-size="12px" font-style="normal" font-weight="normal" text-decoration="none" x="53" y="260.5">-email: String</text></g></g><g transform="translate(-38,-70) scale(1,1)"><g><path fill="none" stroke="none"></path><text fill="#000000" stroke="none" font-family="Times" font-size="12px" font-style="normal" font-weight="normal" text-decoration="none" x="53" y="282.5">«constructor»+Student()</text></g></g><g transform="translate(-38,-70) scale(1,1)"><g><path fill="none" stroke="none"></path><text fill="#000000" stroke="none" font-family="Times" font-size="12px" font-style="normal" font-weight="normal" text-decoration="none" x="53" y="296.5">«constructor»+Student()</text></g></g><g transform="translate(-38,-70) scale(1,1)"><g><path fill="none" stroke="none"></path><text fill="#000000" stroke="none" font-family="Times" font-size="12px" font-style="normal" font-weight="normal" text-decoration="none" x="53" y="310.5">+setName()</text></g></g><g transform="translate(-38,-70) scale(1,1)"><g><path fill="none" stroke="none"></path><text fill="#000000" stroke="none" font-family="Times" font-size="12px" font-style="normal" font-weight="normal" text-decoration="none" x="53" y="324.5">+setDob()</text></g></g><g transform="translate(-38,-70) scale(1,1)"><g><path fill="none" stroke="none"></path><text fill="#000000" stroke="none" font-family="Times" font-size="12px" font-style="normal" font-weight="normal" text-decoration="none" x="53" y="338.5">+setAddress()</text></g></g><g transform="translate(-38,-70) scale(1,1)"><g><path fill="none" stroke="none"></path><text fill="#000000" stroke="none" font-family="Times" font-size="12px" font-style="normal" font-weight="normal" text-decoration="none" x="53" y="352.5">+setNewAddress()</text></g></g><g transform="translate(-38,-70) scale(1,1)"><g><path fill="none" stroke="none"></path><text fill="#000000" stroke="none" font-family="Times" font-size="12px" font-style="normal" font-weight="normal" text-decoration="none" x="53" y="366.5">+setEmail()</text></g></g><g transform="translate(-38,-70) scale(1,1)"><g><path fill="none" stroke="none"></path><text fill="#000000" stroke="none" font-family="Times" font-size="12px" font-style="normal" font-weight="normal" text-decoration="none" x="53" y="380.5">+getId()</text></g></g><g transform="translate(-38,-70) scale(1,1)"><g><path fill="none" stroke="none"></path><text fill="#000000" stroke="none" font-family="Times" font-size="12px" font-style="normal" font-weight="normal" text-decoration="none" x="53" y="394.5">+getName()</text></g></g><g transform="translate(-38,-70) scale(1,1)"><g><path fill="none" stroke="none"></path><text fill="#000000" stroke="none" font-family="Times" font-size="12px" font-style="normal" font-weight="normal" text-decoration="none" x="53" y="408.5">+getDob()</text></g></g><g transform="translate(-38,-70) scale(1,1)"><g><path fill="none" stroke="none"></path><text fill="#000000" stroke="none" font-family="Times" font-size="12px" font-style="normal" font-weight="normal" text-decoration="none" x="53" y="422.5">+getAddress()</text></g></g><g transform="translate(-38,-70) scale(1,1)"><g><path fill="none" stroke="none"></path><text fill="#000000" stroke="none" font-family="Times" font-size="12px" font-style="normal" font-weight="normal" text-decoration="none" x="53" y="436.5">+getEmail()</text></g></g><g transform="translate(-38,-70) scale(1,1)"><g><path fill="none" stroke="none"></path><text fill="#000000" stroke="none" font-family="Times" font-size="12px" font-style="normal" font-weight="normal" text-decoration="none" x="53" y="450.5">+toString()</text></g></g><g transform="translate(-38,-70) scale(1,1)"><g><path fill="none" stroke="none"></path><text fill="#000000" stroke="none" font-family="Times" font-size="12px" font-style="normal" font-weight="normal" text-decoration="none" x="53" y="464.5">+toString()</text></g></g><g transform="translate(-38,-70) scale(1,1)"><g><path fill="none" stroke="none"></path><text fill="#000000" stroke="none" font-family="Times" font-size="12px" font-style="normal" font-weight="normal" text-decoration="none" x="53" y="478.5">+hashCode()</text></g></g><g transform="translate(-38,-70) scale(1,1)"><g><path fill="none" stroke="none"></path><text fill="#000000" stroke="none" font-family="Times" font-size="12px" font-style="normal" font-weight="normal" text-decoration="none" x="53" y="492.5">+equals()</text></g></g><g transform="translate(-38,-70) scale(1,1)"><g><path fill="none" stroke="none"></path><text fill="#000000" stroke="none" font-family="Times" font-size="12px" font-style="normal" font-weight="normal" text-decoration="none" x="53" y="506.5">-nextID()</text></g></g><g transform="translate(-38,-70) scale(1,1)"><g><path fill="none" stroke="none"></path><text fill="#000000" stroke="none" font-family="Times" font-size="12px" font-style="normal" font-weight="normal" text-decoration="none" x="53" y="520.5">+updateAutoGeneratedValue()</text><path fill="none" stroke="#000000" d="M 53 520.5 L 199 520.5" stroke-miterlimit="10"></path></g></g><g transform="translate(-38,-70) scale(1,1)"><path fill="none" stroke="#000000" d="M 367 310 L 269 309" stroke-miterlimit="10"></path></g><g transform="translate(-38,-70) scale(1,1)"><path fill="none" stroke="#000000" d="M 279.20509784013 304.89439674671627 L 269 309 L 279.1191937866866 313.3129939841696" stroke-miterlimit="10"></path></g><g transform="translate(-38,-70) scale(1,1)"><g><path fill="none" stroke="none"></path><text fill="#000000" stroke="none" font-family="Times" font-size="12px" font-style="normal" font-weight="normal" text-decoration="none" x="274.5" y="329.5">-student</text></g></g><g transform="translate(-38,-70) scale(1,1)"><path fill="none" stroke="#000000" d="M 269 309 L 367 310" stroke-miterlimit="10"></path></g><g transform="translate(-38,-70) scale(1,1)"><path fill="none" stroke="#000000" d="M 356.79490215987 314.10560325328373 L 367 310 L 356.8808062133134 305.6870060158304" stroke-miterlimit="10"></path></g><g transform="translate(-38,-70) scale(1,1)"><g><path fill="none" stroke="none"></path><text fill="#000000" stroke="none" font-family="Times" font-size="12px" font-style="normal" font-weight="normal" text-decoration="none" x="320.5" y="299.5">-address</text></g></g></g></svg>