<svg version="1.1" xmlns="http://www.w3.org/2000/svg" xmlns:xlink="http://www.w3.org/1999/xlink" width="167" height="253"><defs></defs><g><g transform="translate(-110,-14) scale(1,1)"><rect fill="#C0C0C0" stroke="none" x="127" y="159" width="147" height="105" opacity="0.2"></rect></g><g transform="translate(-110,-14) scale(1,1)"><rect fill="#e2e2e2" stroke="none" x="120" y="152" width="147" height="105"></rect></g><g transform="translate(-110,-14) scale(1,1)"><path fill="none" stroke="#000000" d="M 120 152 L 267 152 L 267 257 L 120 257 L 120 152 Z Z" stroke-miterlimit="10"></path></g><g transform="translate(-110,-14) scale(1,1)"><path fill="none" stroke="#000000" d="M 120 190 L 267 190" stroke-miterlimit="10"></path></g><g transform="translate(-110,-14) scale(1,1)"><path fill="none" stroke="#000000" d="M 120 212 L 267 212" stroke-miterlimit="10"></path></g><g transform="translate(-110,-14) scale(1,1)"><path fill="none" stroke="#000000" d="M 120 248 L 267 248" stroke-miterlimit="10"></path></g><g transform="translate(-110,-14) scale(1,1)"><g><path fill="none" stroke="none"></path><text fill="#000000" stroke="none" font-family="Times" font-size="12px" font-style="normal" font-weight="bold" text-decoration="none" x="144" y="170.5">CourseManSoftware</text></g></g><g transform="translate(-110,-14) scale(1,1)"><g><path fill="none" stroke="none"></path><text fill="#000000" stroke="none" font-family="Times" font-size="12px" font-style="normal" font-weight="normal" text-decoration="none" x="156" y="184.5">(from software)</text></g></g><g transform="translate(-110,-14) scale(1,1)"><g><path fill="none" stroke="none"></path><text fill="#000000" stroke="none" font-family="Times" font-size="12px" font-style="normal" font-weight="normal" text-decoration="none" x="125" y="206.5">-model: Class[*] {readOnly}</text><path fill="none" stroke="#000000" d="M 125 206.5 L 263 206.5" stroke-miterlimit="10"></path></g></g><g transform="translate(-110,-14) scale(1,1)"><g><path fill="none" stroke="none"></path><text fill="#000000" stroke="none" font-family="Times" font-size="12px" font-style="normal" font-weight="normal" text-decoration="none" x="125" y="228.5">#getModel(): Class[*]</text></g></g><g transform="translate(-110,-14) scale(1,1)"><g><path fill="none" stroke="none"></path><text fill="#000000" stroke="none" font-family="Times" font-size="12px" font-style="normal" font-weight="normal" text-decoration="none" x="125" y="242.5">+main(args: String[*]): void</text><path fill="none" stroke="#000000" d="M 125 242.5 L 259 242.5" stroke-miterlimit="10"></path></g></g><g transform="translate(-110,-14) scale(1,1)"><rect fill="#C0C0C0" stroke="none" x="127" y="31" width="142" height="57" opacity="0.2"></rect></g><g transform="translate(-110,-14) scale(1,1)"><rect fill="#ffffff" stroke="none" x="120" y="24" width="142" height="57"></rect></g><g transform="translate(-110,-14) scale(1,1)"><path fill="none" stroke="#000000" d="M 120 24 L 262 24 L 262 81 L 120 81 L 120 24 Z Z" stroke-miterlimit="10"></path></g><g transform="translate(-110,-14) scale(1,1)"><path fill="none" stroke="#000000" d="M 120 48 L 262 48" stroke-miterlimit="10"></path></g><g transform="translate(-110,-14) scale(1,1)"><path fill="none" stroke="#000000" d="M 120 58 L 262 58" stroke-miterlimit="10"></path></g><g transform="translate(-110,-14) scale(1,1)"><g><path fill="none" stroke="none"></path><text fill="#000000" stroke="none" font-family="Times" font-size="12px" font-style="normal" font-weight="bold" text-decoration="none" x="129" y="42.5">DomainAppToolSoftware</text></g></g><g transform="translate(-110,-14) scale(1,1)"><path fill="none" stroke="#000000" d="M 192 151 L 191 82" stroke-miterlimit="10"></path></g><g transform="translate(-110,-14) scale(1,1)"><path fill="#FFFFFF" stroke="none" d="M 199.71269083941277 102.20121328873127 L 191 82 L 182.87638787027302 102.44521767958837"></path></g><g transform="translate(-110,-14) scale(1,1)"><path fill="none" stroke="#000000" d="M 199.71269083941277 102.20121328873127 L 191 82 L 182.87638787027302 102.44521767958837 L 199.71269083941277 102.20121328873127" stroke-miterlimit="10"></path></g></g></svg>