<svg version="1.1" xmlns="http://www.w3.org/2000/svg" xmlns:xlink="http://www.w3.org/1999/xlink" width="676" height="380"><defs></defs><g><g transform="translate(-46,-6) scale(1,1)"><rect fill="#C0C0C0" stroke="none" x="63" y="97" width="112" height="23" opacity="0.2"></rect></g><g transform="translate(-46,-6) scale(1,1)"><rect fill="#ffffff" stroke="none" x="56" y="90" width="112" height="23"></rect></g><g transform="translate(-46,-6) scale(1,1)"><path fill="none" stroke="#000000" d="M 56 90 L 168 90 L 168 113 L 56 113 L 56 90 Z Z" stroke-miterlimit="10"></path></g><g transform="translate(-46,-6) scale(1,1)"><g><path fill="none" stroke="none"></path><text fill="#000000" stroke="none" font-family="Times" font-size="12px" font-style="normal" font-weight="bold" text-decoration="none" x="64" y="108.5">CompulsoryModule</text></g></g><g transform="translate(-46,-6) scale(1,1)"><rect fill="#C0C0C0" stroke="none" x="172" y="35" width="83" height="23" opacity="0.2"></rect></g><g transform="translate(-46,-6) scale(1,1)"><rect fill="#ffffff" stroke="none" x="165" y="28" width="83" height="23"></rect></g><g transform="translate(-46,-6) scale(1,1)"><path fill="none" stroke="#000000" d="M 165 28 L 248 28 L 248 51 L 165 51 L 165 28 Z Z" stroke-miterlimit="10"></path></g><g transform="translate(-46,-6) scale(1,1)"><g><path fill="none" stroke="none"></path><text fill="#000000" stroke="none" font-family="Times" font-size="12px" font-style="italic" font-weight="bold" text-decoration="none" x="171" y="46.5">CourseModule</text></g></g><g transform="translate(-46,-6) scale(1,1)"><path fill="none" stroke="#000000" d="M 130 89 L 186 52" stroke-miterlimit="10"></path></g><g transform="translate(-46,-6) scale(1,1)"><path fill="#FFFFFF" stroke="none" d="M 173.68289732175438 70.22879539666718 L 186 52 L 164.40078833379604 56.18019800948701"></path></g><g transform="translate(-46,-6) scale(1,1)"><path fill="none" stroke="#000000" d="M 173.68289732175438 70.22879539666718 L 186 52 L 164.40078833379604 56.18019800948701 L 173.68289732175438 70.22879539666718" stroke-miterlimit="10"></path></g><g transform="translate(-46,-6) scale(1,1)"><rect fill="#C0C0C0" stroke="none" x="295" y="343" width="44" height="23" opacity="0.2"></rect></g><g transform="translate(-46,-6) scale(1,1)"><rect fill="#ffffff" stroke="none" x="288" y="336" width="44" height="23"></rect></g><g transform="translate(-46,-6) scale(1,1)"><path fill="none" stroke="#000000" d="M 288 336 L 332 336 L 332 359 L 288 359 L 288 336 Z Z" stroke-miterlimit="10"></path></g><g transform="translate(-46,-6) scale(1,1)"><g><path fill="none" stroke="none"></path><text fill="#000000" stroke="none" font-family="Times" font-size="12px" font-style="normal" font-weight="bold" text-decoration="none" x="293.5" y="354.5">SClass</text></g></g><g transform="translate(-46,-6) scale(1,1)"><rect fill="#C0C0C0" stroke="none" x="111" y="207" width="31" height="23" opacity="0.2"></rect></g><g transform="translate(-46,-6) scale(1,1)"><rect fill="#ffffff" stroke="none" x="104" y="200" width="31" height="23"></rect></g><g transform="translate(-46,-6) scale(1,1)"><path fill="none" stroke="#000000" d="M 104 200 L 135 200 L 135 223 L 104 223 L 104 200 Z Z" stroke-miterlimit="10"></path></g><g transform="translate(-46,-6) scale(1,1)"><g><path fill="none" stroke="none"></path><text fill="#000000" stroke="none" font-family="Times" font-size="12px" font-style="normal" font-weight="bold" text-decoration="none" x="109.5" y="218.5">City</text></g></g><g transform="translate(-46,-6) scale(1,1)"><rect fill="#C0C0C0" stroke="none" x="295" y="207" width="50" height="23" opacity="0.2"></rect></g><g transform="translate(-46,-6) scale(1,1)"><rect fill="#ffffff" stroke="none" x="288" y="200" width="50" height="23"></rect></g><g transform="translate(-46,-6) scale(1,1)"><path fill="none" stroke="#000000" d="M 288 200 L 338 200 L 338 223 L 288 223 L 288 200 Z Z" stroke-miterlimit="10"></path></g><g transform="translate(-46,-6) scale(1,1)"><g><path fill="none" stroke="none"></path><text fill="#000000" stroke="none" font-family="Times" font-size="12px" font-style="normal" font-weight="bold" text-decoration="none" x="295" y="218.5">Student</text></g></g><g transform="translate(-46,-6) scale(1,1)"><path fill="none" stroke="#000000" d="M 299 335 Q 256 288 303 224" stroke-miterlimit="10"></path></g><g transform="translate(-46,-6) scale(1,1)"><path fill="none" stroke="#000000" d="M 300.37750613417205 234.6828145132121 L 303 224 L 293.59172621940263 229.69950738830326" stroke-miterlimit="10"></path></g><g transform="translate(-46,-6) scale(1,1)"><g><path fill="none" stroke="none"></path><text fill="#000000" stroke="none" font-family="Times" font-size="12px" font-style="normal" font-weight="normal" text-decoration="none" x="230.5" y="257.5">-students</text></g></g><g transform="translate(-46,-6) scale(1,1)"><g><path fill="none" stroke="none"></path><text fill="#000000" stroke="none" font-family="Times" font-size="12px" font-style="normal" font-weight="normal" text-decoration="none" x="181.5" y="273.5">{collection="List"}</text></g></g><g transform="translate(-46,-6) scale(1,1)"><g><path fill="none" stroke="none"></path><text fill="#000000" stroke="none" font-family="Times" font-size="12px" font-style="normal" font-weight="normal" text-decoration="none" x="296.5" y="253.5">*</text></g></g><g transform="translate(-46,-6) scale(1,1)"><path fill="none" stroke="#000000" d="M 136 221 Q 192 256 287 221" stroke-miterlimit="10"></path></g><g transform="translate(-46,-6) scale(1,1)"><path fill="none" stroke="#000000" d="M 278.91917684523173 228.46326316977772 L 287 221 L 276.00867115256443 220.5633191468237" stroke-miterlimit="10"></path></g><g transform="translate(-46,-6) scale(1,1)"><g><path fill="none" stroke="none"></path><text fill="#000000" stroke="none" font-family="Times" font-size="12px" font-style="normal" font-weight="normal" text-decoration="none" x="230.5" y="225.5">-student</text></g></g><g transform="translate(-46,-6) scale(1,1)"><path fill="none" stroke="#000000" d="M 287 203 Q 192 176 136 203" stroke-miterlimit="10"></path></g><g transform="translate(-46,-6) scale(1,1)"><path fill="none" stroke="#000000" d="M 143.32602909722388 194.79455682692097 L 136 203 L 146.982409364142 202.3781603434919" stroke-miterlimit="10"></path></g><g transform="translate(-46,-6) scale(1,1)"><g><path fill="none" stroke="none"></path><text fill="#000000" stroke="none" font-family="Times" font-size="12px" font-style="normal" font-weight="normal" text-decoration="none" x="144.5" y="210.5">-address</text></g></g><g transform="translate(-46,-6) scale(1,1)"><path fill="none" stroke="#000000" d="M 323 224 Q 368 280 320 335" stroke-miterlimit="10"></path></g><g transform="translate(-46,-6) scale(1,1)"><path fill="none" stroke="#000000" d="M 323.5107522819874 324.5752880896151 L 320 335 L 329.8538612294087 330.11109226191013" stroke-miterlimit="10"></path></g><g transform="translate(-46,-6) scale(1,1)"><g><path fill="none" stroke="none"></path><text fill="#000000" stroke="none" font-family="Times" font-size="12px" font-style="normal" font-weight="normal" text-decoration="none" x="331.5" y="330.5">-sclass</text></g></g><g transform="translate(-46,-6) scale(1,1)"><rect fill="#C0C0C0" stroke="none" x="183" y="97" width="87" height="23" opacity="0.2"></rect></g><g transform="translate(-46,-6) scale(1,1)"><rect fill="#ffffff" stroke="none" x="176" y="90" width="87" height="23"></rect></g><g transform="translate(-46,-6) scale(1,1)"><path fill="none" stroke="#000000" d="M 176 90 L 263 90 L 263 113 L 176 113 L 176 90 Z Z" stroke-miterlimit="10"></path></g><g transform="translate(-46,-6) scale(1,1)"><g><path fill="none" stroke="none"></path><text fill="#000000" stroke="none" font-family="Times" font-size="12px" font-style="normal" font-weight="bold" text-decoration="none" x="182.5" y="108.5">ElectiveModule</text></g></g><g transform="translate(-46,-6) scale(1,1)"><path fill="none" stroke="#000000" d="M 216 89 L 209 52" stroke-miterlimit="10"></path></g><g transform="translate(-46,-6) scale(1,1)"><path fill="#FFFFFF" stroke="none" d="M 221.05060695497156 70.40605530842475 L 209 52 L 204.50601937179238 73.53611241875595"></path></g><g transform="translate(-46,-6) scale(1,1)"><path fill="none" stroke="#000000" d="M 221.05060695497156 70.40605530842475 L 209 52 L 204.50601937179238 73.53611241875595 L 221.05060695497156 70.40605530842475" stroke-miterlimit="10"></path></g><g transform="translate(-46,-6) scale(1,1)"><rect fill="#C0C0C0" stroke="none" x="288" y="97" width="64" height="23" opacity="0.2"></rect></g><g transform="translate(-46,-6) scale(1,1)"><rect fill="#ffffff" stroke="none" x="281" y="90" width="64" height="23"></rect></g><g transform="translate(-46,-6) scale(1,1)"><path fill="none" stroke="#000000" d="M 281 90 L 345 90 L 345 113 L 281 113 L 281 90 Z Z" stroke-miterlimit="10"></path></g><g transform="translate(-46,-6) scale(1,1)"><g><path fill="none" stroke="none"></path><text fill="#000000" stroke="none" font-family="Times" font-size="12px" font-style="normal" font-weight="bold" text-decoration="none" x="288.5" y="108.5">Enrolment</text></g></g><g transform="translate(-46,-6) scale(1,1)"><path fill="none" stroke="#000000" d="M 301 199 Q 256 152 298 114" stroke-miterlimit="10"></path></g><g transform="translate(-46,-6) scale(1,1)"><path fill="none" stroke="#000000" d="M 293.28823453146583 123.93978199808876 L 298 114 L 287.63979143147435 117.69676594020343" stroke-miterlimit="10"></path></g><g transform="translate(-46,-6) scale(1,1)"><g><path fill="none" stroke="none"></path><text fill="#000000" stroke="none" font-family="Times" font-size="12px" font-style="normal" font-weight="normal" text-decoration="none" x="221.5" y="137.5">-enrolments</text></g></g><g transform="translate(-46,-6) scale(1,1)"><g><path fill="none" stroke="none"></path><text fill="#000000" stroke="none" font-family="Times" font-size="12px" font-style="normal" font-weight="normal" text-decoration="none" x="181.5" y="153.5">{collection="List"}</text></g></g><g transform="translate(-46,-6) scale(1,1)"><g><path fill="none" stroke="none"></path><text fill="#000000" stroke="none" font-family="Times" font-size="12px" font-style="normal" font-weight="normal" text-decoration="none" x="286.5" y="142.5">*</text></g></g><g transform="translate(-46,-6) scale(1,1)"><path fill="none" stroke="#000000" d="M 327 114 Q 360 144 321 199" stroke-miterlimit="10"></path></g><g transform="translate(-46,-6) scale(1,1)"><path fill="none" stroke="#000000" d="M 323.4445415029259 188.27506564866374 L 321 199 L 330.3122256812213 193.14487806600044" stroke-miterlimit="10"></path></g><g transform="translate(-46,-6) scale(1,1)"><g><path fill="none" stroke="none"></path><text fill="#000000" stroke="none" font-family="Times" font-size="12px" font-style="normal" font-weight="normal" text-decoration="none" x="294.5" y="177.5">-student</text></g></g><g transform="translate(-46,-6) scale(1,1)"><path fill="none" stroke="#000000" d="M 292 89 L 228 52" stroke-miterlimit="10"></path></g><g transform="translate(-46,-6) scale(1,1)"><path fill="none" stroke="#000000" d="M 238.90505765328817 53.44212259480987 L 228 52 L 234.69130554977792 60.73077488196272" stroke-miterlimit="10"></path></g><g transform="translate(-46,-6) scale(1,1)"><g><path fill="none" stroke="none"></path><text fill="#000000" stroke="none" font-family="Times" font-size="12px" font-style="normal" font-weight="normal" text-decoration="none" x="222.5" y="82.5">-module</text></g></g><g transform="translate(-46,-6) scale(1,1)"><rect fill="#C0C0C0" stroke="none" x="487" y="23" width="92.79999999999995" height="15" opacity="0.2"></rect></g><g transform="translate(-46,-6) scale(1,1)"><rect fill="#C0C0C0" stroke="none" x="487" y="37" width="232" height="346" opacity="0.2"></rect></g><g transform="translate(-46,-6) scale(1,1)"><rect fill="#ffffff" stroke="none" x="480" y="31" width="232" height="345"></rect></g><g transform="translate(-46,-6) scale(1,1)"><path fill="none" stroke="#000000" d="M 480 31 L 712 31 L 712 376 L 480 376 L 480 31 Z Z" stroke-miterlimit="10"></path></g><g transform="translate(-46,-6) scale(1,1)"><rect fill="#ffffff" stroke="none" x="480" y="16" width="92.79999999999995" height="15"></rect></g><g transform="translate(-46,-6) scale(1,1)"><path fill="none" stroke="#000000" d="M 480 16 L 572.8 16 L 572.8 31 L 480 31 L 480 16 Z Z" stroke-miterlimit="10"></path></g><g transform="translate(-46,-6) scale(1,1)"><rect fill="#ffffff" stroke="none" x="480" y="30" width="232" height="346"></rect></g><g transform="translate(-46,-6) scale(1,1)"><path fill="none" stroke="#000000" d="M 480 30 L 712 30 L 712 376 L 480 376 L 480 30 Z Z" stroke-miterlimit="10"></path></g><g transform="translate(-46,-6) scale(1,1)"><g><path fill="none" stroke="none"></path><text fill="#000000" stroke="none" font-family="Times" font-size="12px" font-style="normal" font-weight="bold" text-decoration="none" x="579.5" y="49.5">reports</text></g></g><g transform="translate(-46,-6) scale(1,1)"><path fill="none" stroke="#000000" d="M 495 210 L 339 211" stroke-miterlimit="10"></path></g><g transform="translate(-46,-6) scale(1,1)"><path fill="none" stroke="#000000" d="M 349.13548253106495 206.72542471554456 L 339 211 L 349.18944959864467 215.14428725798294" stroke-miterlimit="10"></path></g><g transform="translate(-46,-6) scale(1,1)"><g><path fill="none" stroke="none"></path><text fill="#000000" stroke="none" font-family="Times" font-size="12px" font-style="normal" font-weight="normal" text-decoration="none" x="343.5" y="230.5">-students</text></g></g><g transform="translate(-46,-6) scale(1,1)"><g><path fill="none" stroke="none"></path><text fill="#000000" stroke="none" font-family="Times" font-size="12px" font-style="normal" font-weight="normal" text-decoration="none" x="350.5" y="240.5">{collection="Collection"}</text></g></g><g transform="translate(-46,-6) scale(1,1)"><g><path fill="none" stroke="none"></path><text fill="#000000" stroke="none" font-family="Times" font-size="12px" font-style="normal" font-weight="normal" text-decoration="none" x="349.5" y="208.5">*</text></g></g><g transform="translate(-46,-6) scale(1,1)"><rect fill="#C0C0C0" stroke="none" x="503" y="79" width="204" height="277" opacity="0.2"></rect></g><g transform="translate(-46,-6) scale(1,1)"><rect fill="#e2e2e2" stroke="none" x="496" y="72" width="204" height="277"></rect></g><g transform="translate(-46,-6) scale(1,1)"><path fill="none" stroke="#000000" d="M 496 72 L 700 72 L 700 349 L 496 349 L 496 72 Z Z" stroke-miterlimit="10"></path></g><g transform="translate(-46,-6) scale(1,1)"><path fill="none" stroke="#000000" d="M 496 110 L 700 110" stroke-miterlimit="10"></path></g><g transform="translate(-46,-6) scale(1,1)"><path fill="none" stroke="#000000" d="M 496 174 L 700 174" stroke-miterlimit="10"></path></g><g transform="translate(-46,-6) scale(1,1)"><g><path fill="none" stroke="none"></path><text fill="#000000" stroke="none" font-family="Times" font-size="12px" font-style="normal" font-weight="bold" text-decoration="none" x="540.5" y="90.5">StudentsByNameReport</text></g></g><g transform="translate(-46,-6) scale(1,1)"><g><path fill="none" stroke="none"></path><text fill="#000000" stroke="none" font-family="Times" font-size="12px" font-style="normal" font-weight="normal" text-decoration="none" x="564.5" y="104.5">(from reports)</text></g></g><g transform="translate(-46,-6) scale(1,1)"><g><path fill="none" stroke="none"></path><text fill="#000000" stroke="none" font-family="Times" font-size="12px" font-style="normal" font-weight="normal" text-decoration="none" x="501" y="126.5">-id: int</text></g></g><g transform="translate(-46,-6) scale(1,1)"><g><path fill="none" stroke="none"></path><text fill="#000000" stroke="none" font-family="Times" font-size="12px" font-style="normal" font-weight="normal" text-decoration="none" x="501" y="140.5">-idCounter: int = 0</text><path fill="none" stroke="#000000" d="M 501 140.5 L 589 140.5" stroke-miterlimit="10"></path></g></g><g transform="translate(-46,-6) scale(1,1)"><g><path fill="none" stroke="none"></path><text fill="#000000" stroke="none" font-family="Times" font-size="12px" font-style="normal" font-weight="normal" text-decoration="none" x="501" y="154.5">-name: String</text></g></g><g transform="translate(-46,-6) scale(1,1)"><g><path fill="none" stroke="none"></path><text fill="#000000" stroke="none" font-family="Times" font-size="12px" font-style="normal" font-weight="normal" text-decoration="none" x="501" y="168.5">-numStudents: int</text></g></g><g transform="translate(-46,-6) scale(1,1)"><g><path fill="none" stroke="none"></path><text fill="#000000" stroke="none" font-family="Times" font-size="12px" font-style="normal" font-weight="normal" text-decoration="none" x="501" y="190.5">«constructor»+StudentsByNameReport()</text></g></g><g transform="translate(-46,-6) scale(1,1)"><g><path fill="none" stroke="none"></path><text fill="#000000" stroke="none" font-family="Times" font-size="12px" font-style="normal" font-weight="normal" text-decoration="none" x="501" y="204.5">+getName()</text></g></g><g transform="translate(-46,-6) scale(1,1)"><g><path fill="none" stroke="none"></path><text fill="#000000" stroke="none" font-family="Times" font-size="12px" font-style="normal" font-weight="normal" text-decoration="none" x="501" y="218.5">+setName()</text></g></g><g transform="translate(-46,-6) scale(1,1)"><g><path fill="none" stroke="none"></path><text fill="#000000" stroke="none" font-family="Times" font-size="12px" font-style="normal" font-weight="normal" text-decoration="none" x="501" y="232.5">-doReportQuery()</text></g></g><g transform="translate(-46,-6) scale(1,1)"><g><path fill="none" stroke="none"></path><text fill="#000000" stroke="none" font-family="Times" font-size="12px" font-style="normal" font-weight="normal" text-decoration="none" x="501" y="246.5">-resetOutput()</text></g></g><g transform="translate(-46,-6) scale(1,1)"><g><path fill="none" stroke="none"></path><text fill="#000000" stroke="none" font-family="Times" font-size="12px" font-style="normal" font-weight="normal" text-decoration="none" x="501" y="260.5">+addStudent()</text></g></g><g transform="translate(-46,-6) scale(1,1)"><g><path fill="none" stroke="none"></path><text fill="#000000" stroke="none" font-family="Times" font-size="12px" font-style="normal" font-weight="normal" text-decoration="none" x="501" y="274.5">+getStudents()</text></g></g><g transform="translate(-46,-6) scale(1,1)"><g><path fill="none" stroke="none"></path><text fill="#000000" stroke="none" font-family="Times" font-size="12px" font-style="normal" font-weight="normal" text-decoration="none" x="501" y="288.5">+getNumStudents()</text></g></g><g transform="translate(-46,-6) scale(1,1)"><g><path fill="none" stroke="none"></path><text fill="#000000" stroke="none" font-family="Times" font-size="12px" font-style="normal" font-weight="normal" text-decoration="none" x="501" y="302.5">+getId()</text></g></g><g transform="translate(-46,-6) scale(1,1)"><g><path fill="none" stroke="none"></path><text fill="#000000" stroke="none" font-family="Times" font-size="12px" font-style="normal" font-weight="normal" text-decoration="none" x="501" y="316.5">+hashCode()</text></g></g><g transform="translate(-46,-6) scale(1,1)"><g><path fill="none" stroke="none"></path><text fill="#000000" stroke="none" font-family="Times" font-size="12px" font-style="normal" font-weight="normal" text-decoration="none" x="501" y="330.5">+equals()</text></g></g><g transform="translate(-46,-6) scale(1,1)"><g><path fill="none" stroke="none"></path><text fill="#000000" stroke="none" font-family="Times" font-size="12px" font-style="normal" font-weight="normal" text-decoration="none" x="501" y="344.5">+toString()</text></g></g></g></svg>