<svg version="1.1" xmlns="http://www.w3.org/2000/svg" xmlns:xlink="http://www.w3.org/1999/xlink" width="623" height="405"><defs></defs><g><g transform="translate(-38,-46) scale(1,1)"><rect fill="#C0C0C0" stroke="none" x="55" y="137" width="112" height="23" opacity="0.2"></rect></g><g transform="translate(-38,-46) scale(1,1)"><rect fill="#ffffff" stroke="none" x="48" y="130" width="112" height="23"></rect></g><g transform="translate(-38,-46) scale(1,1)"><path fill="none" stroke="#000000" d="M 48 130 L 160 130 L 160 153 L 48 153 L 48 130 Z Z" stroke-miterlimit="10"></path></g><g transform="translate(-38,-46) scale(1,1)"><g><path fill="none" stroke="none"></path><text fill="#000000" stroke="none" font-family="Times" font-size="12px" font-style="normal" font-weight="bold" text-decoration="none" x="56" y="148.5">CompulsoryModule</text></g></g><g transform="translate(-38,-46) scale(1,1)"><rect fill="#C0C0C0" stroke="none" x="157" y="75" width="83" height="23" opacity="0.2"></rect></g><g transform="translate(-38,-46) scale(1,1)"><rect fill="#ffffff" stroke="none" x="150" y="68" width="83" height="23"></rect></g><g transform="translate(-38,-46) scale(1,1)"><path fill="none" stroke="#000000" d="M 150 68 L 233 68 L 233 91 L 150 91 L 150 68 Z Z" stroke-miterlimit="10"></path></g><g transform="translate(-38,-46) scale(1,1)"><g><path fill="none" stroke="none"></path><text fill="#000000" stroke="none" font-family="Times" font-size="12px" font-style="italic" font-weight="bold" text-decoration="none" x="156" y="86.5">CourseModule</text></g></g><g transform="translate(-38,-46) scale(1,1)"><path fill="none" stroke="#000000" d="M 121 129 L 173 92" stroke-miterlimit="10"></path></g><g transform="translate(-38,-46) scale(1,1)"><path fill="#FFFFFF" stroke="none" d="M 161.3200693231556 110.64347659059621 L 173 92 L 151.5581130925113 96.92397053671776"></path></g><g transform="translate(-38,-46) scale(1,1)"><path fill="none" stroke="#000000" d="M 161.3200693231556 110.64347659059621 L 173 92 L 151.5581130925113 96.92397053671776 L 161.3200693231556 110.64347659059621" stroke-miterlimit="10"></path></g><g transform="translate(-38,-46) scale(1,1)"><rect fill="#C0C0C0" stroke="none" x="503" y="63" width="155" height="385" opacity="0.2"></rect></g><g transform="translate(-38,-46) scale(1,1)"><rect fill="#e2e2e2" stroke="none" x="496" y="56" width="155" height="385"></rect></g><g transform="translate(-38,-46) scale(1,1)"><path fill="none" stroke="#000000" d="M 496 56 L 651 56 L 651 441 L 496 441 L 496 56 Z Z" stroke-miterlimit="10"></path></g><g transform="translate(-38,-46) scale(1,1)"><path fill="none" stroke="#000000" d="M 496 94 L 651 94" stroke-miterlimit="10"></path></g><g transform="translate(-38,-46) scale(1,1)"><path fill="none" stroke="#000000" d="M 496 158 L 651 158" stroke-miterlimit="10"></path></g><g transform="translate(-38,-46) scale(1,1)"><path fill="none" stroke="#000000" d="M 496 432 L 651 432" stroke-miterlimit="10"></path></g><g transform="translate(-38,-46) scale(1,1)"><g><path fill="none" stroke="none"></path><text fill="#000000" stroke="none" font-family="Times" font-size="12px" font-style="normal" font-weight="bold" text-decoration="none" x="557" y="74.5">SClass</text></g></g><g transform="translate(-38,-46) scale(1,1)"><g><path fill="none" stroke="none"></path><text fill="#000000" stroke="none" font-family="Times" font-size="12px" font-style="normal" font-weight="normal" text-decoration="none" x="542" y="88.5">(from model)</text></g></g><g transform="translate(-38,-46) scale(1,1)"><g><path fill="none" stroke="none"></path><text fill="#000000" stroke="none" font-family="Times" font-size="12px" font-style="normal" font-weight="normal" text-decoration="none" x="501" y="110.5">-id: int</text></g></g><g transform="translate(-38,-46) scale(1,1)"><g><path fill="none" stroke="none"></path><text fill="#000000" stroke="none" font-family="Times" font-size="12px" font-style="normal" font-weight="normal" text-decoration="none" x="501" y="124.5">-idCounter: int</text><path fill="none" stroke="#000000" d="M 501 124.5 L 570 124.5" stroke-miterlimit="10"></path></g></g><g transform="translate(-38,-46) scale(1,1)"><g><path fill="none" stroke="none"></path><text fill="#000000" stroke="none" font-family="Times" font-size="12px" font-style="normal" font-weight="normal" text-decoration="none" x="501" y="138.5">-name: String</text></g></g><g transform="translate(-38,-46) scale(1,1)"><g><path fill="none" stroke="none"></path><text fill="#000000" stroke="none" font-family="Times" font-size="12px" font-style="normal" font-weight="normal" text-decoration="none" x="501" y="152.5">-studentsCount: int</text></g></g><g transform="translate(-38,-46) scale(1,1)"><g><path fill="none" stroke="none"></path><text fill="#000000" stroke="none" font-family="Times" font-size="12px" font-style="normal" font-weight="normal" text-decoration="none" x="501" y="174.5">«constructor»+SClass()</text></g></g><g transform="translate(-38,-46) scale(1,1)"><g><path fill="none" stroke="none"></path><text fill="#000000" stroke="none" font-family="Times" font-size="12px" font-style="normal" font-weight="normal" text-decoration="none" x="501" y="188.5">«constructor»+SClass()</text></g></g><g transform="translate(-38,-46) scale(1,1)"><g><path fill="none" stroke="none"></path><text fill="#000000" stroke="none" font-family="Times" font-size="12px" font-style="normal" font-weight="normal" text-decoration="none" x="501" y="202.5">+setName()</text></g></g><g transform="translate(-38,-46) scale(1,1)"><g><path fill="none" stroke="none"></path><text fill="#000000" stroke="none" font-family="Times" font-size="12px" font-style="normal" font-weight="normal" text-decoration="none" x="501" y="216.5">+addStudent()</text></g></g><g transform="translate(-38,-46) scale(1,1)"><g><path fill="none" stroke="none"></path><text fill="#000000" stroke="none" font-family="Times" font-size="12px" font-style="normal" font-weight="normal" text-decoration="none" x="501" y="230.5">+addNewStudent()</text></g></g><g transform="translate(-38,-46) scale(1,1)"><g><path fill="none" stroke="none"></path><text fill="#000000" stroke="none" font-family="Times" font-size="12px" font-style="normal" font-weight="normal" text-decoration="none" x="501" y="244.5">+addStudent()</text></g></g><g transform="translate(-38,-46) scale(1,1)"><g><path fill="none" stroke="none"></path><text fill="#000000" stroke="none" font-family="Times" font-size="12px" font-style="normal" font-weight="normal" text-decoration="none" x="501" y="258.5">+addNewStudent()</text></g></g><g transform="translate(-38,-46) scale(1,1)"><g><path fill="none" stroke="none"></path><text fill="#000000" stroke="none" font-family="Times" font-size="12px" font-style="normal" font-weight="normal" text-decoration="none" x="501" y="272.5">+removeStudent()</text></g></g><g transform="translate(-38,-46) scale(1,1)"><g><path fill="none" stroke="none"></path><text fill="#000000" stroke="none" font-family="Times" font-size="12px" font-style="normal" font-weight="normal" text-decoration="none" x="501" y="286.5">+setStudents()</text></g></g><g transform="translate(-38,-46) scale(1,1)"><g><path fill="none" stroke="none"></path><text fill="#000000" stroke="none" font-family="Times" font-size="12px" font-style="normal" font-weight="normal" text-decoration="none" x="501" y="300.5">+getStudentsCount()</text></g></g><g transform="translate(-38,-46) scale(1,1)"><g><path fill="none" stroke="none"></path><text fill="#000000" stroke="none" font-family="Times" font-size="12px" font-style="normal" font-weight="normal" text-decoration="none" x="501" y="314.5">+setStudentsCount()</text></g></g><g transform="translate(-38,-46) scale(1,1)"><g><path fill="none" stroke="none"></path><text fill="#000000" stroke="none" font-family="Times" font-size="12px" font-style="normal" font-weight="normal" text-decoration="none" x="501" y="328.5">+getName()</text></g></g><g transform="translate(-38,-46) scale(1,1)"><g><path fill="none" stroke="none"></path><text fill="#000000" stroke="none" font-family="Times" font-size="12px" font-style="normal" font-weight="normal" text-decoration="none" x="501" y="342.5">+getStudents()</text></g></g><g transform="translate(-38,-46) scale(1,1)"><g><path fill="none" stroke="none"></path><text fill="#000000" stroke="none" font-family="Times" font-size="12px" font-style="normal" font-weight="normal" text-decoration="none" x="501" y="356.5">+getId()</text></g></g><g transform="translate(-38,-46) scale(1,1)"><g><path fill="none" stroke="none"></path><text fill="#000000" stroke="none" font-family="Times" font-size="12px" font-style="normal" font-weight="normal" text-decoration="none" x="501" y="370.5">+toString()</text></g></g><g transform="translate(-38,-46) scale(1,1)"><g><path fill="none" stroke="none"></path><text fill="#000000" stroke="none" font-family="Times" font-size="12px" font-style="normal" font-weight="normal" text-decoration="none" x="501" y="384.5">+hashCode()</text></g></g><g transform="translate(-38,-46) scale(1,1)"><g><path fill="none" stroke="none"></path><text fill="#000000" stroke="none" font-family="Times" font-size="12px" font-style="normal" font-weight="normal" text-decoration="none" x="501" y="398.5">+equals()</text></g></g><g transform="translate(-38,-46) scale(1,1)"><g><path fill="none" stroke="none"></path><text fill="#000000" stroke="none" font-family="Times" font-size="12px" font-style="normal" font-weight="normal" text-decoration="none" x="501" y="412.5">-nextID()</text><path fill="none" stroke="#000000" d="M 501 412.5 L 546 412.5" stroke-miterlimit="10"></path></g></g><g transform="translate(-38,-46) scale(1,1)"><g><path fill="none" stroke="none"></path><text fill="#000000" stroke="none" font-family="Times" font-size="12px" font-style="normal" font-weight="normal" text-decoration="none" x="501" y="426.5">+updateAutoGeneratedValue()</text><path fill="none" stroke="#000000" d="M 501 426.5 L 647 426.5" stroke-miterlimit="10"></path></g></g><g transform="translate(-38,-46) scale(1,1)"><rect fill="#C0C0C0" stroke="none" x="95" y="247" width="31" height="23" opacity="0.2"></rect></g><g transform="translate(-38,-46) scale(1,1)"><rect fill="#ffffff" stroke="none" x="88" y="240" width="31" height="23"></rect></g><g transform="translate(-38,-46) scale(1,1)"><path fill="none" stroke="#000000" d="M 88 240 L 119 240 L 119 263 L 88 263 L 88 240 Z Z" stroke-miterlimit="10"></path></g><g transform="translate(-38,-46) scale(1,1)"><g><path fill="none" stroke="none"></path><text fill="#000000" stroke="none" font-family="Times" font-size="12px" font-style="normal" font-weight="bold" text-decoration="none" x="93.5" y="258.5">City</text></g></g><g transform="translate(-38,-46) scale(1,1)"><rect fill="#C0C0C0" stroke="none" x="303" y="247" width="50" height="23" opacity="0.2"></rect></g><g transform="translate(-38,-46) scale(1,1)"><rect fill="#ffffff" stroke="none" x="296" y="240" width="50" height="23"></rect></g><g transform="translate(-38,-46) scale(1,1)"><path fill="none" stroke="#000000" d="M 296 240 L 346 240 L 346 263 L 296 263 L 296 240 Z Z" stroke-miterlimit="10"></path></g><g transform="translate(-38,-46) scale(1,1)"><g><path fill="none" stroke="none"></path><text fill="#000000" stroke="none" font-family="Times" font-size="12px" font-style="normal" font-weight="bold" text-decoration="none" x="303" y="258.5">Student</text></g></g><g transform="translate(-38,-46) scale(1,1)"><path fill="none" stroke="#000000" d="M 495 202 Q 424 160 335 239" stroke-miterlimit="10"></path></g><g transform="translate(-38,-46) scale(1,1)"><path fill="none" stroke="#000000" d="M 339.80593249551333 229.10540486686955 L 335 239 L 345.39484277323425 235.4017721417703" stroke-miterlimit="10"></path></g><g transform="translate(-38,-46) scale(1,1)"><g><path fill="none" stroke="none"></path><text fill="#000000" stroke="none" font-family="Times" font-size="12px" font-style="normal" font-weight="normal" text-decoration="none" x="358.5" y="233.5">-students</text></g></g><g transform="translate(-38,-46) scale(1,1)"><g><path fill="none" stroke="none"></path><text fill="#000000" stroke="none" font-family="Times" font-size="12px" font-style="normal" font-weight="normal" text-decoration="none" x="358.5" y="249.5">{collection="List"}</text></g></g><g transform="translate(-38,-46) scale(1,1)"><g><path fill="none" stroke="none"></path><text fill="#000000" stroke="none" font-family="Times" font-size="12px" font-style="normal" font-weight="normal" text-decoration="none" x="349.5" y="242.5">*</text></g></g><g transform="translate(-38,-46) scale(1,1)"><path fill="none" stroke="#000000" d="M 120 243 Q 192 208 295 242" stroke-miterlimit="10"></path></g><g transform="translate(-38,-46) scale(1,1)"><path fill="none" stroke="#000000" d="M 284.0299937335268 242.81176506055567 L 295 242 L 286.6690296002687 234.81703875836712" stroke-miterlimit="10"></path></g><g transform="translate(-38,-46) scale(1,1)"><g><path fill="none" stroke="none"></path><text fill="#000000" stroke="none" font-family="Times" font-size="12px" font-style="normal" font-weight="normal" text-decoration="none" x="237.5" y="249.5">-student</text></g></g><g transform="translate(-38,-46) scale(1,1)"><path fill="none" stroke="#000000" d="M 295 259 Q 176 296 120 261" stroke-miterlimit="10"></path></g><g transform="translate(-38,-46) scale(1,1)"><path fill="none" stroke="#000000" d="M 130.84897099203346 262.8165429843569 L 120 261 L 126.3868910948074 269.95587081991863" stroke-miterlimit="10"></path></g><g transform="translate(-38,-46) scale(1,1)"><g><path fill="none" stroke="none"></path><text fill="#000000" stroke="none" font-family="Times" font-size="12px" font-style="normal" font-weight="normal" text-decoration="none" x="113.5" y="292.5">-address</text></g></g><g transform="translate(-38,-46) scale(1,1)"><path fill="none" stroke="#000000" d="M 342 264 Q 448 328 495 298" stroke-miterlimit="10"></path></g><g transform="translate(-38,-46) scale(1,1)"><path fill="none" stroke="#000000" d="M 488.69852544623353 307.0161753780765 L 495 298 L 484.16878586135215 299.91958336176236" stroke-miterlimit="10"></path></g><g transform="translate(-38,-46) scale(1,1)"><g><path fill="none" stroke="none"></path><text fill="#000000" stroke="none" font-family="Times" font-size="12px" font-style="normal" font-weight="normal" text-decoration="none" x="445.5" y="320.5">-sclass</text></g></g><g transform="translate(-38,-46) scale(1,1)"><rect fill="#C0C0C0" stroke="none" x="183" y="135" width="87" height="23" opacity="0.2"></rect></g><g transform="translate(-38,-46) scale(1,1)"><rect fill="#ffffff" stroke="none" x="176" y="128" width="87" height="23"></rect></g><g transform="translate(-38,-46) scale(1,1)"><path fill="none" stroke="#000000" d="M 176 128 L 263 128 L 263 151 L 176 151 L 176 128 Z Z" stroke-miterlimit="10"></path></g><g transform="translate(-38,-46) scale(1,1)"><g><path fill="none" stroke="none"></path><text fill="#000000" stroke="none" font-family="Times" font-size="12px" font-style="normal" font-weight="bold" text-decoration="none" x="182.5" y="146.5">ElectiveModule</text></g></g><g transform="translate(-38,-46) scale(1,1)"><path fill="none" stroke="#000000" d="M 213 127 L 197 92" stroke-miterlimit="10"></path></g><g transform="translate(-38,-46) scale(1,1)"><path fill="#FFFFFF" stroke="none" d="M 213.10736043221422 106.98509058720498 L 197 92 L 197.7935646177272 113.98568295954192"></path></g><g transform="translate(-38,-46) scale(1,1)"><path fill="none" stroke="#000000" d="M 213.10736043221422 106.98509058720498 L 197 92 L 197.7935646177272 113.98568295954192 L 213.10736043221422 106.98509058720498" stroke-miterlimit="10"></path></g><g transform="translate(-38,-46) scale(1,1)"><rect fill="#C0C0C0" stroke="none" x="295" y="129" width="64" height="23" opacity="0.2"></rect></g><g transform="translate(-38,-46) scale(1,1)"><rect fill="#ffffff" stroke="none" x="288" y="122" width="64" height="23"></rect></g><g transform="translate(-38,-46) scale(1,1)"><path fill="none" stroke="#000000" d="M 288 122 L 352 122 L 352 145 L 288 145 L 288 122 Z Z" stroke-miterlimit="10"></path></g><g transform="translate(-38,-46) scale(1,1)"><g><path fill="none" stroke="none"></path><text fill="#000000" stroke="none" font-family="Times" font-size="12px" font-style="normal" font-weight="bold" text-decoration="none" x="295.5" y="140.5">Enrolment</text></g></g><g transform="translate(-38,-46) scale(1,1)"><path fill="none" stroke="#000000" d="M 308 239 Q 248 184 302 146" stroke-miterlimit="10"></path></g><g transform="translate(-38,-46) scale(1,1)"><path fill="none" stroke="#000000" d="M 296.1114489759306 155.29112301268967 L 302 146 L 291.2663495524063 148.4059817266288" stroke-miterlimit="10"></path></g><g transform="translate(-38,-46) scale(1,1)"><g><path fill="none" stroke="none"></path><text fill="#000000" stroke="none" font-family="Times" font-size="12px" font-style="normal" font-weight="normal" text-decoration="none" x="209.5" y="173.5">-enrolments</text></g></g><g transform="translate(-38,-46) scale(1,1)"><g><path fill="none" stroke="none"></path><text fill="#000000" stroke="none" font-family="Times" font-size="12px" font-style="normal" font-weight="normal" text-decoration="none" x="173.5" y="187.5">{collection="List"}</text></g></g><g transform="translate(-38,-46) scale(1,1)"><g><path fill="none" stroke="none"></path><text fill="#000000" stroke="none" font-family="Times" font-size="12px" font-style="normal" font-weight="normal" text-decoration="none" x="287.5" y="173.5">*</text></g></g><g transform="translate(-38,-46) scale(1,1)"><path fill="none" stroke="#000000" d="M 320 146 L 321 239" stroke-miterlimit="10"></path></g><g transform="translate(-38,-46) scale(1,1)"><path fill="none" stroke="#000000" d="M 316.68145581872346 228.88317361252243 L 321 239 L 325.100004667238 228.79265158189324" stroke-miterlimit="10"></path></g><g transform="translate(-38,-46) scale(1,1)"><g><path fill="none" stroke="none"></path><text fill="#000000" stroke="none" font-family="Times" font-size="12px" font-style="normal" font-weight="normal" text-decoration="none" x="320.5" y="219.5">-student</text></g></g><g transform="translate(-38,-46) scale(1,1)"><path fill="none" stroke="#000000" d="M 291 121 L 222 92" stroke-miterlimit="10"></path></g><g transform="translate(-38,-46) scale(1,1)"><path fill="none" stroke="#000000" d="M 232.9998526911842 92.05692778098141 L 222 92 L 229.73781641001958 99.8183244499593" stroke-miterlimit="10"></path></g><g transform="translate(-38,-46) scale(1,1)"><g><path fill="none" stroke="none"></path><text fill="#000000" stroke="none" font-family="Times" font-size="12px" font-style="normal" font-weight="normal" text-decoration="none" x="247.5" y="90.5">-module</text></g></g></g></svg>